<?xml version="1.0" encoding="UTF-8"?>
<svg version="1.1" xmlns="http://www.w3.org/2000/svg" width="512" height="512">
<path d="M0 0 C8.99873693 6.5695363 15.60490386 15.39122449 17.42578125 26.4921875 C18.12248486 37.46526939 17.09035707 46.05122779 11.42578125 55.4921875 C11.00797246 58.11913172 11.00797246 58.11913172 11.42578125 60.4921875 C14.07608308 63.14248933 15.29521222 62.74669871 18.99659729 62.75720215 C20.77342644 62.76961189 20.77342644 62.76961189 22.58615112 62.78227234 C23.89262604 62.78129044 25.19910095 62.78030853 26.54516602 62.77929688 C27.92985945 62.78531892 29.31454922 62.79224261 30.69923401 62.80000305 C33.68615865 62.81491684 36.67301614 62.8236476 39.65997505 62.82771301 C44.38836991 62.83442089 49.11662153 62.85617192 53.84495544 62.88024902 C63.89269713 62.92927615 73.94046934 62.9615157 83.98828125 62.9921875 C94.81144989 63.0252841 105.63456271 63.06135921 116.45764583 63.11631823 C121.15175845 63.13958872 125.84577258 63.1533888 130.53993714 63.15981293 C133.47179593 63.16578155 136.40357582 63.17990487 139.33539391 63.19615746 C141.3291488 63.20476935 143.32293851 63.20361754 145.31671143 63.20210266 C155.90852532 63.27486561 165.31582658 64.02129117 173.42578125 71.4921875 C178.51007807 78.34586225 180.57902258 83.91327494 180.53689575 92.40534973 C180.53689477 93.22039008 180.53689378 94.03543043 180.53689277 94.87516898 C180.53585678 97.61577867 180.52783446 100.35632573 180.52001953 103.09692383 C180.51814096 105.05804909 180.51679571 107.01917493 180.51594543 108.9803009 C180.51365942 113.2085961 180.50893318 117.43687945 180.5027504 121.66517067 C180.49435819 128.35026164 180.4997719 135.035295 180.50875854 141.72038269 C180.51022955 142.84794521 180.51170056 143.97550772 180.51321614 145.1372388 C180.51628693 147.44315917 180.51940697 149.74907947 180.52257514 152.05499971 C180.54377431 167.62177376 180.55744345 183.18836026 180.52539062 198.75512695 C180.50387863 209.25122733 180.50698059 219.74699784 180.53879917 230.2430765 C180.55466865 235.79904356 180.55784464 241.35437984 180.53104019 246.91031837 C180.50604752 252.13662587 180.51351099 257.36187573 180.54591942 262.58813286 C180.55201809 264.50617112 180.54614673 266.42429042 180.52742577 268.34224701 C180.5036194 270.9621312 180.52285461 273.57833193 180.55276489 276.19807434 C180.53558383 276.95674059 180.51840277 277.71540684 180.50070107 278.49706298 C180.5746066 281.60551903 180.88895624 283.88026179 182.97067237 286.25320566 C184.81500919 287.86872185 184.81500919 287.86872185 186.72609603 289.23819941 C196.01558367 296.09176661 200.68603694 310.309565 202.921875 321.10546875 C205.33944107 337.35376164 201.99395094 352.79340946 192.48046875 366.2421875 C190.83938851 368.36828336 189.16919167 370.44961197 187.42578125 372.4921875 C190.27036469 374.75208751 193.11063682 376.38787566 196.36328125 377.9921875 C214.85571747 387.99143539 227.78259314 405.01287606 234.80078125 424.6171875 C238.77832291 438.3230633 238.76838813 451.817019 238.74145508 465.98779297 C238.73826358 469.5116991 238.76192886 473.03478907 238.78710938 476.55859375 C238.78937976 478.80729061 238.79008708 481.05598972 238.7890625 483.3046875 C238.80287712 484.87814941 238.80287712 484.87814941 238.81697083 486.48339844 C238.75884756 495.61622192 238.75884756 495.61622192 235.42578125 499.4921875 C232.44236352 500.98389636 229.74394952 500.62188035 226.4140625 500.62640858 C225.68030822 500.62876081 224.94655395 500.63111304 224.19056469 500.63353655 C221.70645564 500.64024811 219.22239863 500.63976768 216.73828125 500.63935852 C214.94939309 500.64265582 213.16050568 500.64638111 211.37161922 500.6505 C206.43575834 500.66054366 201.49990961 500.6642406 196.56403995 500.66688931 C191.24821881 500.67078547 185.93240737 500.68036439 180.61659241 500.68910217 C167.76743296 500.70888799 154.91827269 500.71893631 142.06910181 500.72782996 C136.02148035 500.73221014 129.97385978 500.73757772 123.92623901 500.74281883 C103.82708416 500.75983462 83.72792987 500.77432874 63.62876892 500.78156757 C58.40990193 500.78347755 53.19103494 500.78539786 47.97216797 500.78735352 C46.67500465 500.78783726 45.37784133 500.788321 44.04137003 500.7888194 C23.02878133 500.79711942 2.01624956 500.82245432 -18.99631429 500.85493419 C-40.55932367 500.88799364 -62.12230411 500.9060154 -83.68533897 500.90921181 C-95.79620262 500.91137814 -107.90698329 500.92014455 -120.01782227 500.94567299 C-130.33260599 500.96736488 -140.6472866 500.97543789 -150.96209055 500.96570621 C-156.22506644 500.96115691 -161.4878295 500.9630844 -166.75077629 500.98246765 C-171.57107626 501.00006725 -176.39100763 500.9991275 -181.21131134 500.98357036 C-182.95301058 500.98118941 -184.69473513 500.98554309 -186.43639565 500.99739901 C-197.16519716 501.06589503 -205.70568305 500.3676356 -214.88671875 494.3046875 C-221.56774002 487.31292106 -223.69559337 480.32049522 -223.70564651 470.79569626 C-223.70769915 470.13246929 -223.70975178 469.46924233 -223.71186662 468.78591758 C-223.71752863 466.55979468 -223.71608036 464.33373381 -223.71466064 462.10760498 C-223.71724473 460.49690627 -223.72025802 458.88620821 -223.72366405 457.27551103 C-223.73173206 452.84616472 -223.73352351 448.41683462 -223.73426151 443.98748183 C-223.73611239 439.21161575 -223.74365988 434.43575807 -223.75039673 429.65989685 C-223.76397883 419.215708 -223.77000448 408.77152299 -223.77440739 398.32732677 C-223.77716983 391.80657813 -223.78140717 385.28583096 -223.78591156 378.76508331 C-223.79810371 360.71260038 -223.80840336 342.66011864 -223.81178665 324.60763168 C-223.81200622 323.45223535 -223.81222578 322.29683901 -223.812452 321.10643066 C-223.81267028 319.94826564 -223.81288856 318.79010061 -223.81311345 317.59683967 C-223.81355692 315.24994389 -223.81400348 312.90304812 -223.81445312 310.55615234 C-223.81467455 309.39201027 -223.81489598 308.2278682 -223.81512412 307.02844909 C-223.81907273 288.16227175 -223.8365289 269.29613302 -223.85981265 250.42997059 C-223.88352229 231.06248477 -223.89598831 211.69501832 -223.89715457 192.32751775 C-223.89807151 181.45250295 -223.90382867 170.57753848 -223.92197418 159.70253754 C-223.93736988 150.4429217 -223.94249873 141.18337174 -223.93423608 131.92374554 C-223.93032781 127.19962457 -223.9312679 122.47563627 -223.94529343 117.7515316 C-223.95802143 113.42489376 -223.9568445 109.09848844 -223.94470271 104.77185097 C-223.94274382 103.20859136 -223.94583304 101.64531534 -223.95454708 100.08207878 C-224.01707858 88.10376656 -223.25152433 79.37149227 -214.7578125 70.44140625 C-208.16466285 64.55592919 -201.05107795 63.38689781 -192.38589478 63.33396912 C-191.16600861 63.3241803 -189.94612244 63.31439148 -188.68927002 63.30430603 C-187.35095254 63.29840311 -186.01263465 63.29259259 -184.67431641 63.28686523 C-183.25472738 63.27727751 -181.83514116 63.26726691 -180.41555786 63.25686646 C-176.57307848 63.22990818 -172.73058694 63.20884967 -168.88806581 63.18886447 C-164.86817507 63.16694871 -160.84832145 63.13958744 -156.82846069 63.11280823 C-149.22133108 63.06295677 -141.61418077 63.01799004 -134.00701082 62.97478586 C-125.34437596 62.92534887 -116.68177837 62.87045476 -108.01917958 62.81510627 C-90.20422726 62.70140212 -72.38923974 62.59453803 -54.57421875 62.4921875 C-53.52279897 58.08818805 -53.80070926 56.2400609 -55.88671875 52.1796875 C-61.3808725 40.76405693 -62.01798445 30.81368158 -57.9609375 18.7421875 C-53.41030951 8.07705373 -46.21142783 1.43391985 -35.82421875 -3.3203125 C-24.03755963 -7.62697641 -10.83654469 -6.34735395 0 0 Z " fill="#020202" transform="translate(248.57421875,8.5078125)"/>
<path d="M0 0 C25.41 0 50.82 0 77 0 C77.495 4.95 77.495 4.95 78 10 C82.27647322 13.20735491 83.0345799 13.37500249 88.07275391 13.3742218 C89.94027313 13.38474327 89.94027313 13.38474327 91.84552002 13.39547729 C93.22253579 13.38804982 94.59954996 13.38031868 95.9765625 13.37231445 C97.42877462 13.3747428 98.88098508 13.37846254 100.33319092 13.38337708 C104.27533492 13.39278387 108.21723055 13.38336251 112.15935516 13.37004495 C116.2841343 13.35872995 120.40890121 13.36283799 124.53369141 13.36479187 C131.46065326 13.36567483 138.38751726 13.35459405 145.31445312 13.33618164 C153.32382232 13.31501397 161.33304815 13.31150413 169.34243965 13.3177436 C177.04608173 13.32343772 184.74967331 13.31779103 192.45330811 13.30657005 C195.73232965 13.3019247 199.0113203 13.30104994 202.29034424 13.3031559 C206.15139897 13.30503916 210.01230772 13.29693206 213.87332916 13.2810955 C215.29069668 13.27685199 216.708079 13.27600256 218.12545013 13.27878571 C220.05938884 13.28200713 221.99333602 13.27170142 223.92724609 13.26069641 C225.55102676 13.25761711 225.55102676 13.25761711 227.20761108 13.25447559 C230.0152826 12.99860727 231.65932201 12.54200683 234 11 C235.63379316 8.02050148 235.63379316 8.02050148 236 0 C261.08 0 286.16 0 312 0 C312 53.79 312 107.58 312 163 C307.05 163.99 307.05 163.99 302 165 C289.55655252 168.80641084 278.75760783 176.55551237 271 187 C270.53896378 188.01669266 270.07792755 189.03338531 269.60292053 190.08088684 C266.6782908 193.36078918 266.24478425 193.45082381 262.09739685 193.73930359 C260.01617928 193.76533237 257.93439359 193.75812666 255.85327148 193.7253418 C254.7163385 193.73115265 253.57940552 193.7369635 252.40802002 193.74295044 C248.645196 193.75577207 244.88381784 193.72701588 241.12109375 193.69921875 C238.51082269 193.7028506 235.90055424 193.70954895 233.29029846 193.7191925 C227.11731745 193.73806729 220.94474785 193.72904971 214.7717858 193.70787126 C203.05919872 193.66794108 191.34678325 193.67043339 179.63417244 193.6968174 C175.78120596 193.69919706 171.92869875 193.68134385 168.07579041 193.6615448 C165.72297157 193.66129676 163.37015255 193.66169378 161.01733398 193.6628418 C159.40188438 193.64654976 159.40188438 193.64654976 157.75379944 193.62992859 C156.77100006 193.63379578 155.78820068 193.63766296 154.77561951 193.64164734 C153.92078193 193.63846339 153.06594435 193.63527945 152.1852026 193.63199902 C149.48968221 194.08594052 148.61122475 194.82192858 147 197 C146.49346823 200.40099904 146.51153493 202.2296284 148.36785889 205.1572876 C152.51056886 208.0575208 156.61042277 207.57040713 161.55175781 207.54589844 C163.16197311 207.56140495 163.16197311 207.56140495 164.80471802 207.57722473 C168.3543387 207.60673178 171.90339113 207.60815363 175.453125 207.609375 C177.91364637 207.62435124 180.37415767 207.6410772 182.83465576 207.65948486 C189.31193495 207.70323264 195.78907851 207.7231741 202.26647949 207.73822021 C208.87565149 207.75776439 215.48467645 207.79973745 222.09375 207.83984375 C235.06247961 207.91522663 248.03110289 207.96339679 261 208 C260.67 215.26 260.34 222.52 260 230 C258.06703064 230.00364563 256.13406128 230.00729126 254.14251709 230.01104736 C235.95450415 230.04793731 217.76665986 230.1054059 199.57877731 230.18390274 C190.22748268 230.22373153 180.87627268 230.25610447 171.52490234 230.27099609 C163.37532538 230.28399276 155.22593431 230.31090641 147.07646203 230.35461307 C142.76034914 230.37727276 138.44446592 230.392908 134.12828827 230.39188385 C130.06686364 230.39113988 126.00594756 230.40898385 121.94465446 230.44116783 C120.45313014 230.44969597 118.96154897 230.45139704 117.47001076 230.44580269 C115.43512323 230.43918624 113.40020096 230.45940264 111.36541748 230.48101807 C110.22608135 230.48470524 109.08674522 230.48839241 107.91288376 230.49219131 C104.3475572 231.11374162 103.15813473 232.14063631 101 235 C100.55734207 238.09860549 100.33466152 240.0171052 102.12278461 242.65867329 C104.89347324 244.63841344 107.08995215 244.38556402 110.47294617 244.39872742 C111.46296897 244.40869766 111.46296897 244.40869766 112.47299224 244.41886932 C114.68877508 244.43755008 116.90402034 244.43489075 119.11987305 244.43237305 C120.70651007 244.44138715 122.2931401 244.4517135 123.87976074 244.46325684 C128.19144731 244.49089443 132.503002 244.50012048 136.81476569 244.50611091 C141.31917559 244.51547704 145.82348628 244.54167894 150.32783508 244.56611633 C158.85942208 244.6098336 167.39098989 244.63834842 175.92265493 244.66143972 C185.63480943 244.68846341 195.3468644 244.73237662 205.05894792 244.77772844 C225.03924512 244.87064956 245.01957211 244.94229606 265 245 C265.59095459 246.10952026 265.59095459 246.10952026 266.19384766 247.24145508 C266.983479 248.70941528 266.983479 248.70941528 267.7890625 250.20703125 C268.30678223 251.17358643 268.82450195 252.1401416 269.35791016 253.13598633 C271.58483579 257.02002804 274.19019945 260.52262272 277 264 C270.8105487 268.3990674 265.80739912 268.56050845 258.3449707 268.48242188 C257.18969879 268.48633438 256.03442688 268.49024689 254.84414673 268.49427795 C252.34404863 268.5002418 249.84391574 268.49710317 247.34383583 268.4858551 C243.38923567 268.46859045 239.43508666 268.47553001 235.48051453 268.4901123 C227.09113721 268.51680355 218.70190152 268.51014217 210.3125 268.5 C200.58039655 268.48824516 190.84865794 268.48953745 181.11659813 268.52406311 C177.21655465 268.53117564 173.31706802 268.51445824 169.41706848 268.49694824 C167.0336578 268.50265348 164.65024942 268.50946946 162.2668457 268.51757812 C160.6358065 268.50060631 160.6358065 268.50060631 158.97181702 268.48329163 C153.29703501 268.45269724 153.29703501 268.45269724 148.28800964 270.80358887 C146.34729878 274.11303532 147.06317194 276.38652035 148 280 C151.1357117 283.1357117 155.01036186 282.30883822 159.22314453 282.31884766 C160.1792865 282.32889328 161.13542847 282.3389389 162.12054443 282.34928894 C165.29129415 282.3802608 168.46195891 282.3971949 171.6328125 282.4140625 C173.82714577 282.43276289 176.02147178 282.45233544 178.21578979 282.4727478 C183.99928509 282.5241943 189.78280373 282.56375291 195.56640625 282.60089111 C201.4649031 282.64085246 207.36330178 282.6919806 213.26171875 282.7421875 C224.841077 282.83909493 236.42049052 282.92345213 248 283 C247.59062195 283.54215149 247.1812439 284.08430298 246.75946045 284.6428833 C245.95185272 285.71539337 245.95185272 285.71539337 245.12792969 286.80957031 C244.59480164 287.5167218 244.06167358 288.22387329 243.51239014 288.95245361 C241.64281488 291.48357437 239.92720839 294.08800871 238.25 296.75 C237.67765625 297.65234375 237.1053125 298.5546875 236.515625 299.484375 C235.2277214 301.62202943 234.09902575 303.76282461 233 306 C232.00690087 306.00358253 232.00690087 306.00358253 230.99373913 306.00723743 C214.89467934 306.06633717 198.79579335 306.1418547 182.69690228 306.23571491 C174.91163675 306.28070759 167.12641733 306.32011414 159.34106445 306.34643555 C152.55646161 306.36938763 145.77200424 306.40275413 138.9875167 306.44870156 C135.3941438 306.47267172 131.80091529 306.4913755 128.20746422 306.49761391 C124.19889095 306.5047679 120.19082126 306.53516936 116.18237305 306.56762695 C114.9869136 306.56619186 113.79145416 306.56475677 112.55976868 306.5632782 C110.92544388 306.58208542 110.92544388 306.58208542 109.25810242 306.60127258 C108.30957744 306.60588155 107.36105246 306.61049051 106.38378429 306.61523914 C103.55951828 307.07109709 102.66103869 307.70159996 101 310 C100.41654524 312.95746492 100.41654524 312.95746492 101 316 C102.99827142 318.52617027 104.20843879 319.83234207 107.39751053 320.50780869 C108.29349331 320.51149586 109.18947609 320.51518303 110.11260986 320.51898193 C111.66064804 320.53985115 111.66064804 320.53985115 113.23995972 320.56114197 C114.36636871 320.5561116 115.49277771 320.55108124 116.65332031 320.54589844 C117.84384003 320.55623611 119.03435974 320.56657379 120.26095581 320.57722473 C123.52109852 320.6016579 126.78070879 320.60848947 130.04092503 320.60750484 C133.44963133 320.61063405 136.85816679 320.63625231 140.26678467 320.65948486 C146.71943843 320.70004809 153.17199113 320.72038624 159.62475276 320.73345876 C166.97183386 320.74932779 174.31874294 320.78774291 181.66572428 320.82805204 C196.77709253 320.91045528 211.8884432 320.96454465 227 321 C226.67 322.98 226.34 324.96 226 327 C225.67 332.94 225.34 338.88 225 345 C150.75 345 76.5 345 0 345 C0 231.15 0 117.3 0 0 Z " fill="#EEEEEE" transform="translate(71,118)"/>
<path d="M0 0 C12.90170212 4.36475495 27.1648911 3.1836381 39.78271484 -1.40380859 C45.27731695 -3.35109902 48.69028749 -3.27069802 54 -1.0625 C54.79535156 -0.79953125 55.59070313 -0.5365625 56.41015625 -0.265625 C74.31571543 6.04421657 86.24216891 20.19398145 94.640625 36.58984375 C103.00736371 57.19413994 99 71.52060611 99 96.9375 C46.2 96.9375 -6.6 96.9375 -61 96.9375 C-61 33.97788207 -61 33.97788207 -41.08203125 13.765625 C-30.21434877 3.40071787 -14.7444552 -6.27088872 0 0 Z " fill="#42A1FE" transform="translate(372,396.0625)"/>
<path d="M0 0 C0.83575058 -0.00137466 1.67150116 -0.00274933 2.53257751 -0.00416565 C3.91037636 0.00122726 3.91037636 0.00122726 5.31600952 0.00672913 C6.28190506 0.0065831 7.2478006 0.00643707 8.2429657 0.00628662 C11.44620992 0.00698514 14.64939651 0.01477474 17.85263062 0.02259827 C20.0693763 0.02446266 22.2861224 0.02588646 24.50286865 0.02688599 C30.34560274 0.03070948 36.18831208 0.04053834 42.03103638 0.05158997 C47.98979355 0.0618077 53.94855471 0.06638438 59.90731812 0.07142639 C71.60524567 0.08216074 83.30315484 0.09923516 95.00106812 0.12025452 C95.00106812 5.07025452 95.00106812 10.02025452 95.00106812 15.12025452 C93.39826996 15.12905388 93.39826996 15.12905388 91.76309204 15.13803101 C81.69834674 15.19521786 71.63381833 15.2679583 61.56929398 15.35596943 C56.39487512 15.40071706 51.2205358 15.43996351 46.04598999 15.46669006 C41.05323852 15.49267918 36.06079242 15.53305045 31.06822968 15.58344078 C29.16247096 15.60013924 27.25665939 15.61163493 25.35083771 15.61786842 C22.68346565 15.62747715 20.01688009 15.65549733 17.34970093 15.68788147 C16.16502731 15.68572884 16.16502731 15.68572884 14.9564209 15.68353271 C10.63692261 15.75781241 8.04798407 15.97579584 5.00106812 19.12025452 C4.39941208 21.92555277 4.39941208 21.92555277 4.50049686 25.1941824 C4.49068257 26.47261153 4.48086828 27.75104066 4.47075659 29.06821007 C4.48009667 30.49510144 4.48981227 31.9219904 4.49986267 33.34887695 C4.49597237 34.85829762 4.4903341 36.36771463 4.48309177 37.87712294 C4.46827985 42.03572787 4.47855212 46.19395638 4.49282849 50.35254943 C4.50390209 54.83320699 4.49200765 59.31381017 4.48298645 63.79446411 C4.46902691 72.57660578 4.4766303 81.35860402 4.49166203 90.1407389 C4.50849177 100.36103695 4.50531568 110.58129898 4.50156795 120.8016066 C4.49568432 139.03407233 4.50988024 157.26646907 4.53451538 175.49891663 C4.5584341 193.2030445 4.56552165 210.90708019 4.55502319 228.61122131 C4.54362093 247.87411193 4.54167564 267.13695986 4.55612129 286.39984995 C4.55764718 288.45288217 4.55916754 290.50591439 4.5606823 292.55894661 C4.56144011 293.56916316 4.56219793 294.5793797 4.5629787 295.62020887 C4.56772716 302.74925312 4.56586609 309.87827835 4.5616169 317.00732231 C4.55669659 325.69256137 4.56264604 334.37771315 4.58251119 343.06293219 C4.59240164 347.49679895 4.59746951 351.93053266 4.58961868 356.36440659 C4.58258427 360.4201079 4.58931367 364.47554023 4.60722231 368.53120596 C4.61128145 370.00156291 4.61024251 371.4719442 4.60370345 372.94229221 C4.59559701 374.93501492 4.60762277 376.92778954 4.62075138 378.9204855 C4.62178051 380.02916152 4.62280964 381.13783755 4.62386996 382.28010982 C5.05136344 385.49895736 5.65488004 386.88991429 8.00106812 389.12025452 C9.91088197 389.71597065 9.91088197 389.71597065 12.05591106 389.6280632 C12.88396557 389.63951079 13.71202007 389.65095838 14.56516713 389.66275287 C15.92945504 389.65111224 15.92945504 389.65111224 17.32130432 389.63923645 C18.28758595 389.6467377 19.25386758 389.65423895 20.24943048 389.66196752 C23.50173783 389.68233945 26.75335433 389.67412327 30.00570679 389.66615295 C32.33124994 389.67488278 34.65678707 389.68536648 36.98231506 389.69747925 C43.30842938 389.72543202 49.63434861 389.72874188 55.96051574 389.72775936 C61.89806987 389.73056449 67.83553452 389.75167204 73.77304772 389.77272597 C85.5345106 389.81383304 97.29593878 389.83712647 109.0574646 389.84925842 C120.48360531 389.86108248 131.90968067 389.8812706 143.33578491 389.91273499 C144.0399277 389.91467109 144.74407048 389.91660719 145.46955093 389.91860196 C149.00198024 389.92836637 152.53440905 389.93829551 156.06683767 389.94830656 C185.37821065 390.03116303 214.68959956 390.08483096 244.00106812 390.12025452 C244.00106812 395.40025452 244.00106812 400.68025452 244.00106812 406.12025452 C212.74724327 406.18867444 181.49343821 406.2417743 150.23955627 406.2734505 C146.55076648 406.27720268 142.86197683 406.28108564 139.17318726 406.28504944 C138.07161773 406.28622984 138.07161773 406.28622984 136.94779428 406.28743408 C125.05274036 406.30049232 113.15772987 406.32414845 101.26270173 406.3517129 C89.05967638 406.37975549 76.85667381 406.39642834 64.65361756 406.40252 C57.12208218 406.40663883 49.59066959 406.41965346 42.059172 406.44400392 C36.28654949 406.46171832 30.51400588 406.46362303 24.74136162 406.45957756 C22.37138232 406.46040468 20.00139849 406.4663957 17.63144684 406.47787094 C14.40127587 406.49274761 11.17163469 406.48922547 7.94145203 406.48101807 C6.99884295 406.48975659 6.05623388 406.49849512 5.08506089 406.50749844 C0.24411187 406.47414203 -3.1410821 406.3641511 -6.99893188 403.12025452 C-10.74379811 399.21249427 -11.49967113 396.79368183 -11.50508976 391.41538334 C-11.51120312 390.75125759 -11.51731648 390.08713183 -11.52361509 389.40288106 C-11.53923854 387.17338921 -11.52634063 384.94498159 -11.51359558 382.71548462 C-11.51891979 381.10264209 -11.52598475 379.48980451 -11.53464264 377.87697643 C-11.55331373 373.44173525 -11.54694969 369.00682695 -11.53648961 364.57157171 C-11.52951023 359.78960257 -11.54548593 355.00770269 -11.55848694 350.22575378 C-11.58015344 340.85634911 -11.57999324 331.48706576 -11.57186139 322.11764426 C-11.56556703 314.50386248 -11.56669325 306.89011615 -11.57313347 299.27633476 C-11.57403512 298.1935783 -11.57493678 297.11082185 -11.57586576 295.99525459 C-11.57771692 293.79578963 -11.57957948 291.59632469 -11.58145332 289.39685976 C-11.59804106 268.76099455 -11.58930433 248.12519766 -11.57246774 227.48933654 C-11.5577703 208.60169092 -11.5723981 189.71420436 -11.6012379 170.82657922 C-11.63061633 151.44214185 -11.64160869 132.05777794 -11.6320557 112.67331928 C-11.63103313 110.48154288 -11.63003852 108.28976646 -11.62907219 106.09799004 C-11.6285958 105.01954213 -11.62811941 103.94109423 -11.62762858 102.82996609 C-11.62546238 95.22442059 -11.63527952 87.61894448 -11.64984322 80.01341438 C-11.66734137 70.74597543 -11.66728542 61.47873932 -11.64449156 52.21130843 C-11.63332639 47.48140872 -11.63023821 42.75186671 -11.64879227 38.02198219 C-11.66555351 33.69349033 -11.65930559 29.36566935 -11.63457548 25.03722131 C-11.62967739 23.4699826 -11.63324809 21.90269022 -11.64606292 20.33549625 C-11.74608181 7.15414799 -11.74608181 7.15414799 -8.58467007 3.21201992 C-5.40819423 0.64236987 -3.97429021 -0.00503075 0 0 Z " fill="#C78456" transform="translate(51.998931884765625,87.87974548339844)"/>
<path d="M0 0 C5.72407264 3.38771646 11.08687187 7.20131983 13.0625 13.8125 C14.11325227 22.44438082 13.58645188 28.74630888 9.1875 36.20703125 C6.93866692 41.41526619 7.27542952 47.27677099 8.0625 52.8125 C9.63949506 56.65700868 11.22804578 59.41942005 14.4375 62.0625 C15.00210938 62.54203125 15.56671875 63.0215625 16.1484375 63.515625 C20.80245158 66.66895699 24.99408137 67.09373302 30.55078125 67.2265625 C31.25397995 67.24592865 31.95717865 67.2652948 32.6816864 67.2852478 C34.91267019 67.34470183 37.14370654 67.39129049 39.375 67.4375 C40.89390186 67.47571137 42.41278278 67.51476492 43.93164062 67.5546875 C47.6418139 67.65195037 51.35178263 67.73178606 55.0625 67.8125 C55.0625 77.3825 55.0625 86.9525 55.0625 96.8125 C12.1625 96.8125 -30.7375 96.8125 -74.9375 96.8125 C-74.9375 87.2425 -74.9375 77.6725 -74.9375 67.8125 C-72.81570312 67.78671875 -70.69390625 67.7609375 -68.5078125 67.734375 C-66.41914434 67.69579987 -64.33071032 67.65069047 -62.2421875 67.60498047 C-60.80708271 67.57701136 -59.37183076 67.55567897 -57.93652344 67.54150391 C-43.57956469 67.44694524 -43.57956469 67.44694524 -31.5 60.4375 C-30.984375 59.57125 -30.46875 58.705 -29.9375 57.8125 C-29.36 56.94625 -28.7825 56.08 -28.1875 55.1875 C-26.05715862 49.43557828 -25.77480109 43.79217641 -28.02734375 38.01953125 C-28.89079842 36.32515788 -29.79412952 34.65018058 -30.74609375 33.00390625 C-33.78414219 27.41588928 -33.70769545 21.00456635 -32.9375 14.8125 C-30.50162444 7.91887588 -26.20982571 3.23235419 -19.7890625 -0.19140625 C-13.49834027 -2.38885032 -6.26623512 -2.38449655 0 0 Z " fill="#787583" transform="translate(236.9375,20.1875)"/>
<path d="M0 0 C1.97143196 1.41444747 3.7921616 2.89320356 5.6015625 4.5078125 C6.4678125 5.2709375 7.3340625 6.0340625 8.2265625 6.8203125 C11.4649676 10.48482353 14.1188808 14.29745641 16.6015625 18.5078125 C17.22998047 19.56548828 17.22998047 19.56548828 17.87109375 20.64453125 C22.54815613 30.11434306 22.30570772 43.56637979 19.1015625 53.5078125 C13.64275352 65.84280541 4.23614934 75.58918183 -8.3984375 80.5078125 C-18.89183376 84.09629492 -32.65306885 84.41673836 -42.91015625 79.90234375 C-55.79895219 72.67895262 -62.95608277 64.30974873 -68.51171875 50.80078125 C-71.28556177 40.4996814 -70.80662966 27.65146303 -66.00390625 18.11328125 C-58.80465071 6.42981788 -48.94308907 -2.25399878 -35.51489258 -6.02050781 C-23.26798532 -8.74989123 -10.56897505 -6.57548611 0 0 Z " fill="#FCDDC3" transform="translate(415.3984375,301.4921875)"/>
<path d="M0 0 C12.69122429 -0.0694916 25.38240335 -0.12280712 38.07377911 -0.15543652 C43.96681625 -0.1710965 49.85972329 -0.1923411 55.75268555 -0.22631836 C61.43906243 -0.25889955 67.1253141 -0.27685051 72.81177711 -0.28463173 C74.98192122 -0.29017743 77.15205843 -0.30100673 79.32214928 -0.31719017 C82.3603436 -0.33894765 85.39801968 -0.34196759 88.4362793 -0.34057617 C89.78387329 -0.35675491 89.78387329 -0.35675491 91.15869141 -0.3732605 C95.93086193 -0.34959082 99.1848861 -0.17510975 103 3 C106.35918607 6.39724462 107.4587805 8.76224213 107.51632524 13.56595212 C107.49884819 14.64135323 107.49884819 14.64135323 107.48101807 15.73847961 C107.48443577 16.51045958 107.48785347 17.28243955 107.49137473 18.07781285 C107.4979556 20.6607346 107.47597495 23.24261369 107.45410156 25.82543945 C107.45297313 27.67836991 107.45360687 29.53130215 107.45587158 31.38423157 C107.4570198 36.41285735 107.43349285 41.44110192 107.40557575 46.46963906 C107.38058023 51.72536047 107.37822155 56.9810905 107.37347412 62.23686218 C107.36103893 72.18866682 107.32820988 82.1402958 107.28807616 92.09202307 C107.24337544 103.42200749 107.22137567 114.75200028 107.20129442 126.08205092 C107.1594778 149.38813135 107.08911508 172.69405583 107 196 C105.45737855 195.71342606 103.91594394 195.42046123 102.375 195.125 C101.51648438 194.96257812 100.65796875 194.80015625 99.7734375 194.6328125 C96.7680986 193.94708729 93.90891497 193.01513455 91 192 C90.99780016 190.66675454 90.99780016 190.66675454 90.99555588 189.30657482 C90.95853711 167.69970131 90.89958811 146.09298528 90.81609726 124.48623943 C90.7762533 114.03745446 90.74388808 103.58874538 90.72900391 93.13989258 C90.7160151 84.03483048 90.68912162 74.929935 90.64538693 65.82496673 C90.62270956 61.00195678 90.60709306 56.17915282 90.60811615 51.35608482 C90.60885907 46.81945598 90.59105727 42.28328357 90.55883217 37.74677277 C90.55029082 36.07905723 90.54861177 34.41129075 90.55419731 32.7435627 C90.56079561 30.47133988 90.54301998 28.20058722 90.51898193 25.92851257 C90.51529476 24.65551646 90.51160759 23.38252035 90.50780869 22.0709486 C90.2845134 18.94638665 90.2845134 18.94638665 88.20168304 17.09188843 C84.79477612 15.40228908 81.37310654 15.5608643 77.65136719 15.56762695 C76.39228043 15.55233948 76.39228043 15.55233948 75.10775757 15.53674316 C72.33739573 15.50658481 69.56737951 15.49734292 66.796875 15.48828125 C64.87443897 15.47143667 62.95201396 15.45328672 61.02960205 15.43388367 C55.97277269 15.38635361 50.91598803 15.35656365 45.85900879 15.33044434 C40.69758269 15.30065402 35.5363107 15.25411843 30.375 15.20898438 C20.25008056 15.12291704 10.12512944 15.05558696 0 15 C0 10.05 0 5.1 0 0 Z " fill="#C58255" transform="translate(307,88)"/>
<path d="M0 0 C0.71128241 -0.00623996 1.42256481 -0.01247993 2.15540123 -0.01890898 C4.53313962 -0.03483372 6.90985209 -0.02223763 9.28759766 -0.00964355 C10.99449257 -0.01506494 12.70138279 -0.02218769 14.40826416 -0.03088379 C19.04050419 -0.04911825 23.67238784 -0.04204914 28.30463409 -0.02936745 C33.15231792 -0.01924042 37.99997123 -0.0286323 42.84765625 -0.03491211 C50.98849974 -0.04218938 59.12919808 -0.03259872 67.27001953 -0.0135498 C76.6819516 0.00821909 86.09353707 0.00116777 95.50546074 -0.02085543 C103.58628239 -0.03900715 111.66699971 -0.04156886 119.74783516 -0.03110075 C124.57419643 -0.02486457 129.4003948 -0.02403361 134.22674561 -0.0372467 C138.76424128 -0.04880127 143.30129009 -0.04078676 147.83873749 -0.01766968 C149.50401823 -0.01238047 151.16933657 -0.01390001 152.83460236 -0.02272034 C155.10801604 -0.03365164 157.37999788 -0.01994348 159.65332031 0 C161.56136948 0.00226215 161.56136948 0.00226215 163.50796509 0.00457001 C167.4308898 0.59958137 169.10512816 1.65575066 171.82666016 4.50793457 C172.38916016 8.00793457 172.38916016 8.00793457 171.82666016 11.50793457 C170.23748779 13.69493866 170.23748779 13.69493866 167.82666016 15.50793457 C164.59698486 16.01129913 164.59698486 16.01129913 160.69091797 16.01586914 C159.97161732 16.0221091 159.25231667 16.02834907 158.51121902 16.03477812 C156.10040785 16.05073602 153.69060387 16.03809374 151.27978516 16.0255127 C149.55171112 16.0309326 147.8236417 16.03805452 146.09558105 16.04675293 C141.40136917 16.06500494 136.70750851 16.05791104 132.01329041 16.04523659 C127.10373987 16.03511864 122.19421967 16.04449891 117.28466797 16.05078125 C109.03949578 16.05806117 100.79446685 16.04846091 92.54931641 16.02941895 C83.0129867 16.00764955 73.47699906 16.01470067 63.94067764 16.03672457 C55.75713292 16.05486875 47.57369124 16.0574417 39.3901329 16.04696989 C34.50063214 16.04072956 29.61129223 16.03991415 24.72180176 16.05311584 C20.12522853 16.06465945 15.52909687 16.05667601 10.93257141 16.03353882 C9.24429559 16.02824374 7.55598269 16.02977916 5.86772156 16.03858948 C3.5654446 16.04949758 1.2645884 16.0358407 -1.03759766 16.01586914 C-2.32659973 16.01436104 -3.61560181 16.01285294 -4.94366455 16.01129913 C-8.17333984 15.50793457 -8.17333984 15.50793457 -10.58416748 13.69493866 C-12.17333984 11.50793457 -12.17333984 11.50793457 -12.73583984 8.00793457 C-12.17333984 4.50793457 -12.17333984 4.50793457 -10.08651733 2.32093048 C-6.45998855 0.06398532 -4.25631855 0.00504623 0 0 Z " fill="#030303" transform="translate(183.17333984375,272.4920654296875)"/>
<path d="M0 0 C1.0717673 -0.00935994 1.0717673 -0.00935994 2.16518646 -0.01890898 C4.55984641 -0.03486624 6.95349227 -0.02222482 9.34815979 -0.00964355 C11.06475926 -0.01506354 12.78135408 -0.0221855 14.49794006 -0.03088379 C19.1612291 -0.04913625 23.82416459 -0.04204136 28.4874599 -0.02936745 C33.36584608 -0.01924809 38.24420176 -0.02863031 43.12258911 -0.03491211 C51.31648702 -0.04219231 59.51024079 -0.03259176 67.70411682 -0.0135498 C77.17794334 0.00821239 86.65142545 0.00117382 96.1252436 -0.02085543 C104.2569999 -0.03900747 112.38865251 -0.04156849 120.52042252 -0.03110075 C125.37809746 -0.02486381 130.23561053 -0.02403556 135.09327507 -0.0372467 C139.6611251 -0.04880147 144.22853124 -0.04078637 148.79633331 -0.01766968 C150.47290116 -0.01238027 152.14950635 -0.01390036 153.82605934 -0.02272034 C156.11484991 -0.03365099 158.40221806 -0.0199441 160.69091797 0 C161.97162391 0.0015081 163.25232985 0.0030162 164.57184505 0.00457001 C168.50737986 0.59820081 170.17856389 1.64799589 172.90895081 4.50793457 C173.53395081 8.00793457 173.53395081 8.00793457 172.90895081 11.50793457 C170.17894177 14.36692754 168.50585566 15.4173986 164.57184505 16.01409245 C163.29113912 16.01689937 162.01043318 16.01970629 160.69091797 16.02259827 C159.61681068 16.03301656 159.61681068 16.03301656 158.52100426 16.04364532 C156.12713296 16.06190809 153.73425351 16.0516538 151.34034729 16.04138184 C149.62197631 16.0484406 147.90361154 16.05718544 146.18525696 16.06748962 C141.52210819 16.0899952 136.85929862 16.08704164 132.19611621 16.07816815 C128.30419484 16.07306002 124.41233731 16.08034919 120.52042252 16.08764023 C111.34136285 16.10464208 102.16246944 16.10106947 92.9834137 16.08435059 C83.50892578 16.06741701 74.03489817 16.0832801 64.56046051 16.11557347 C56.42784571 16.14224463 48.29537442 16.14955243 40.16272026 16.14105839 C35.30448663 16.13612339 30.4465302 16.13837605 25.58833122 16.1588459 C21.02204319 16.17716504 16.4564193 16.17129087 11.89016724 16.1466465 C10.2131744 16.14162714 8.53613127 16.1451575 6.85917854 16.15779495 C4.57201659 16.17366943 2.28705695 16.15883185 0 16.13612366 C-1.28032891 16.13553735 -2.56065783 16.13495104 -3.87978458 16.13434696 C-7.09104919 15.50793457 -7.09104919 15.50793457 -9.50298977 13.160079 C-11.4452211 9.91644849 -11.7240986 8.22709981 -11.09104919 4.50793457 C-7.87328316 0.14780624 -5.25945037 0.00619512 0 0 Z " fill="#000000" transform="translate(182.09104919433594,197.4920654296875)"/>
<path d="M0 0 C1.07528458 -0.00990463 2.15056915 -0.01980927 3.25843811 -0.03001404 C5.02042542 -0.02326157 5.02042542 -0.02326157 6.81800842 -0.01637268 C8.0590181 -0.02323593 9.30002777 -0.03009918 10.5786438 -0.03717041 C13.97964552 -0.05233811 17.38009928 -0.0539318 20.78109431 -0.04822803 C23.62157281 -0.04513738 26.46200169 -0.05122726 29.30247313 -0.05726677 C36.00430814 -0.07131368 42.70601568 -0.06974953 49.40785217 -0.05836487 C56.31872353 -0.04688443 63.22920678 -0.06095734 70.14002699 -0.08776134 C76.07647017 -0.10992296 82.01279156 -0.11655469 87.94927317 -0.11068493 C91.49353838 -0.10731508 95.03755483 -0.10973189 98.5817852 -0.12693596 C102.53437878 -0.14528487 106.48649563 -0.13121313 110.43910217 -0.11402893 C111.61173615 -0.1236969 112.78437012 -0.13336487 113.99253845 -0.14332581 C121.87495987 -0.07142478 121.87495987 -0.07142478 125.92398071 2.20028687 C127.69325256 4.38768005 127.69325256 4.38768005 128.25575256 7.88768005 C127.60196617 11.95568428 126.87000544 12.88482465 123.69325256 15.38768005 C121.18197632 15.89383793 121.18197632 15.89383793 118.30384827 15.90234375 C116.6635112 15.92143044 116.6635112 15.92143044 114.99003601 15.94090271 C113.19763992 15.93111389 113.19763992 15.93111389 111.36903381 15.92112732 C109.47584915 15.93405067 109.47584915 15.93405067 107.54441833 15.94723511 C104.08568186 15.96973415 100.62740285 15.9667887 97.16862106 15.95791364 C94.28081436 15.95280348 91.3930936 15.9600964 88.50529575 15.96738571 C81.69319711 15.98438592 74.88132248 15.98081734 68.06922913 15.96409607 C61.04123909 15.94716799 54.01386985 15.96301777 46.98594761 15.99531895 C40.9509881 16.02200559 34.91622196 16.02929363 28.88120937 16.02080387 C25.27712665 16.01587261 21.6734176 16.01810053 18.06938171 16.03859138 C14.05168317 16.06034091 10.03516398 16.04156091 6.01747131 16.01878357 C4.82254059 16.03047577 3.62760986 16.04216797 2.39646912 16.05421448 C-5.61950156 15.96145874 -5.61950156 15.96145874 -9.07701111 13.07479858 C-10.76783739 9.38014426 -10.45079303 7.24883395 -9.30674744 3.38768005 C-6.30275042 0.46025835 -4.12733166 0.01074072 0 0 Z " fill="#060606" transform="translate(227.30674743652344,159.61231994628906)"/>
<path d="M0 0 C1.09355804 -0.0112793 2.18711609 -0.02255859 3.31381226 -0.03417969 C5.10620834 -0.0220343 5.10620834 -0.0220343 6.93481445 -0.00964355 C8.19693756 -0.01665283 9.45906067 -0.02366211 10.75942993 -0.03088379 C14.21818541 -0.04911266 17.67646342 -0.04205186 21.1352272 -0.02936745 C24.7555291 -0.01923732 28.37579024 -0.02863315 31.99609375 -0.03491211 C38.07567685 -0.04218852 44.15506556 -0.03260114 50.23461914 -0.0135498 C57.26253812 0.00821913 64.28999293 0.00116774 71.31790066 -0.02085543 C77.35285381 -0.03900977 83.38766726 -0.04156765 89.42263889 -0.03110075 C93.02665884 -0.02486592 96.63046064 -0.02402964 100.23446655 -0.0372467 C104.25204947 -0.05095142 108.26883274 -0.03195523 112.28637695 -0.00964355 C114.07877304 -0.02178894 114.07877304 -0.02178894 115.90737915 -0.03417969 C117.54771622 -0.01726074 117.54771622 -0.01726074 119.22119141 0 C120.17097366 0.0015081 121.12075592 0.0030162 122.09931946 0.00457001 C125.37247473 0.66064692 126.5667794 1.91832506 128.6105957 4.50793457 C129.34488247 8.34254324 129.01225573 9.90644854 126.84033203 13.15890503 C121.91517969 16.74103285 117.3185173 16.20629852 111.37231445 16.15490723 C110.13115875 16.16366882 108.89000305 16.17243042 107.61123657 16.18145752 C104.21407403 16.199678 100.81843667 16.19543152 97.42136002 16.17956209 C93.86291741 16.16688364 90.30453898 16.17864858 86.74609375 16.18649292 C80.77079598 16.19558391 74.79580744 16.18361637 68.82055664 16.15979004 C61.91694324 16.13257937 55.01406819 16.14139396 48.11047268 16.16892207 C42.17821918 16.19162817 36.24618768 16.19480603 30.31390476 16.18172872 C26.77297937 16.17394228 23.23240078 16.17286985 19.6914978 16.18941116 C15.74366664 16.20656595 11.79665933 16.18277551 7.84887695 16.15490723 C6.67781403 16.16502838 5.5067511 16.17514954 4.30020142 16.18557739 C-3.59993891 16.08212309 -3.59993891 16.08212309 -7.61914062 13.15890503 C-9.79106432 9.90644854 -10.12369106 8.34254324 -9.3894043 4.50793457 C-6.48806602 0.83180517 -4.6363101 0.00736172 0 0 Z " fill="#060606" transform="translate(226.389404296875,235.4920654296875)"/>
<path d="M0 0 C3.375 0.625 3.375 0.625 5.8125 2.25 C7.84136376 5.33387292 7.75377165 6.97706826 7.375 10.625 C5.86328125 13.08984375 5.86328125 13.08984375 3.6875 15.5625 C2.86765625 16.51125 2.0478125 17.46 1.203125 18.4375 C0.75001953 18.94796875 0.29691406 19.4584375 -0.16992188 19.984375 C-1.71602456 21.72763172 -3.24233728 23.48678052 -4.765625 25.25 C-6.41776083 27.16216915 -8.07145088 29.0727606 -9.73266602 30.97705078 C-14.12495832 36.01395892 -18.38774754 41.14525902 -22.6015625 46.33203125 C-24.625 48.625 -24.625 48.625 -27.625 50.625 C-31.01823116 50.65731649 -33.52238117 50.45454033 -36.296875 48.3671875 C-38.00164096 46.68724823 -39.56996157 44.94434093 -41.125 43.125 C-41.68598389 42.49078125 -42.24696777 41.8565625 -42.82495117 41.203125 C-44.44356283 39.35890572 -46.03554261 37.49433897 -47.625 35.625 C-48.81029297 34.27921875 -48.81029297 34.27921875 -50.01953125 32.90625 C-52.74370107 29.66609689 -54.4443999 27.49516412 -55.3125 23.3125 C-54.43939837 19.89946635 -53.53549864 18.61639381 -50.625 16.625 C-47.875 15.9375 -47.875 15.9375 -44.625 16.625 C-39.10365562 20.37951418 -34.81697964 25.48982494 -30.625 30.625 C-24.82372903 24.45072006 -19.06785361 18.28709268 -13.75 11.6875 C-12.37697977 9.99838878 -11.00220599 8.31070013 -9.625 6.625 C-8.81289062 5.62726563 -8.81289062 5.62726563 -7.984375 4.609375 C-5.38878248 1.68591816 -3.89898671 0.67223909 0 0 Z " fill="#040404" transform="translate(153.625,161.375)"/>
<path d="M0 0 C3.4375 0.9375 3.4375 0.9375 5.4375 2.5625 C6.92374655 6.09233555 6.3422241 8.23080337 5.4375 11.9375 C3.77473788 14.55322855 1.74131792 16.74390245 -0.375 19 C-1.56182511 20.31453818 -2.74800802 21.62965641 -3.93359375 22.9453125 C-4.53800293 23.60692383 -5.14241211 24.26853516 -5.76513672 24.95019531 C-8.55556516 28.03551011 -11.24420963 31.20500198 -13.9375 34.375 C-14.92130886 35.52392252 -15.90566303 36.67237837 -16.890625 37.8203125 C-18.52815627 39.7299936 -20.16348692 41.64145321 -21.796875 43.5546875 C-22.73273438 44.64136719 -22.73273438 44.64136719 -23.6875 45.75 C-24.20570313 46.35457031 -24.72390625 46.95914063 -25.2578125 47.58203125 C-27.26298644 49.66525088 -28.51266814 49.93203148 -31.41015625 50.25 C-35.35399281 49.85903727 -36.34949144 48.81658452 -39 45.9375 C-39.76699219 45.11507812 -40.53398438 44.29265625 -41.32421875 43.4453125 C-42.06285156 42.61773437 -42.80148438 41.79015625 -43.5625 40.9375 C-44.53123047 39.88175781 -44.53123047 39.88175781 -45.51953125 38.8046875 C-47.24794408 36.8842288 -48.91299895 34.92588369 -50.5625 32.9375 C-51.08328125 32.34066406 -51.6040625 31.74382812 -52.140625 31.12890625 C-54.67694512 28.00031358 -55.55719039 26.25607661 -55.625 22.1875 C-54.5625 18.9375 -54.5625 18.9375 -52.9375 16.9375 C-49.38370349 15.44116463 -47.28061036 15.97411865 -43.5625 16.9375 C-41.08175906 18.84955897 -39.13402118 21.10782798 -37.125 23.5 C-36.58423828 24.11552734 -36.04347656 24.73105469 -35.48632812 25.36523438 C-34.16297669 26.875963 -32.86055684 28.40498297 -31.5625 29.9375 C-23.69559937 22.15428981 -16.41779447 13.94200664 -9.5703125 5.25 C-6.42553875 1.62800377 -4.91131597 -0.08616344 0 0 Z " fill="#040404" transform="translate(154.5625,312.0625)"/>
<path d="M0 0 C2.875 2.0625 2.875 2.0625 5 5 C4.8108711 10.40908656 3.52754334 13.27664747 0 17.3125 C-0.8146875 18.25738281 -1.629375 19.20226562 -2.46875 20.17578125 C-5.5479878 23.61141231 -8.62861701 27.04497641 -11.73828125 30.453125 C-14.13907657 33.15661127 -16.41739135 35.93612998 -18.6875 38.75 C-20.12186996 40.50256642 -21.55906261 42.25282923 -23 44 C-23.54527344 44.66902344 -24.09054688 45.33804688 -24.65234375 46.02734375 C-27.14486946 48.83722021 -28.5700321 49.94109339 -32.3359375 50.45703125 C-37.01396296 49.87352488 -38.33379829 48.42694773 -41.5 45 C-42.20382813 44.25157837 -42.20382813 44.25157837 -42.921875 43.48803711 C-44.3012136 42.01041116 -45.65117272 40.50552927 -47 39 C-47.7115625 38.21753906 -48.423125 37.43507813 -49.15625 36.62890625 C-56.85392814 28.00163562 -56.85392814 28.00163562 -57.4375 24 C-57 21 -57 21 -55.4375 18.625 C-52.02544071 16.35029381 -50.02388226 16.36465017 -46 17 C-43.5 19 -43.5 19 -41 22 C-39.73107215 23.43918231 -38.46015807 24.87661524 -37.1875 26.3125 C-36.12324005 27.54014315 -35.06012706 28.76878615 -34 30 C-29.66740664 28.41891143 -27.22343368 25.06756576 -24.375 21.625 C-23.59201538 20.6963916 -23.59201538 20.6963916 -22.79321289 19.74902344 C-20.20714355 16.67539393 -17.65008785 13.57814031 -15.09765625 10.4765625 C-14.64793457 9.93177246 -14.19821289 9.38698242 -13.73486328 8.82568359 C-12.50409545 7.33088201 -11.28111517 5.8296784 -10.05859375 4.328125 C-6.93223566 0.7924335 -4.71185715 -0.78530952 0 0 Z " fill="#040404" transform="translate(156,387)"/>
<path d="M0 0 C3.8398907 0.62692093 5.47091039 1.60351749 8.0625 4.5 C8.44826807 7.83575923 8.46028084 9.80899099 6.76953125 12.74609375 C6.14433594 13.46925781 5.51914063 14.19242188 4.875 14.9375 C4.14410156 15.79730469 3.41320312 16.65710938 2.66015625 17.54296875 C1.80292969 18.51878906 0.94570312 19.49460938 0.0625 20.5 C-0.93989733 21.66181635 -1.94114047 22.82462923 -2.94140625 23.98828125 C-5.13206962 26.53319377 -7.33935827 29.06248861 -9.5546875 31.5859375 C-11.83025328 34.19125749 -14.03395087 36.8383423 -16.1953125 39.5390625 C-16.71963867 40.18327148 -17.24396484 40.82748047 -17.78417969 41.49121094 C-18.77640173 42.71421178 -19.75459942 43.94877552 -20.71582031 45.19628906 C-23.17961428 48.20095868 -24.77836051 49.45287952 -28.5390625 50.56640625 C-32.3167992 50.49258841 -33.30102697 50.15919866 -35.9375 47.5625 C-36.60652344 46.91152344 -37.27554688 46.26054687 -37.96484375 45.58984375 C-41.06589392 42.30457278 -44.05341099 38.97768227 -46.9375 35.5 C-47.60652344 34.75363281 -48.27554688 34.00726563 -48.96484375 33.23828125 C-53.88937312 27.49462225 -53.88937312 27.49462225 -54.125 22.625 C-52.9375 19.5 -52.9375 19.5 -51.3125 17.5 C-47.75870349 16.00366463 -45.65561036 16.53661865 -41.9375 17.5 C-39.45675906 19.41205897 -37.50902118 21.67032798 -35.5 24.0625 C-34.95923828 24.67802734 -34.41847656 25.29355469 -33.86132812 25.92773438 C-32.53797669 27.438463 -31.23555684 28.96748297 -29.9375 30.5 C-22.43391647 23.07512539 -15.57430655 15.18460709 -8.98046875 6.9453125 C-3.70475573 0.63059672 -3.70475573 0.63059672 0 0 Z " fill="#040404" transform="translate(152.9375,236.5)"/>
</svg>
