<?xml version="1.0" encoding="UTF-8"?>
<svg version="1.1" xmlns="http://www.w3.org/2000/svg" width="512" height="512">
<path d="M0 0 C8.82733036 5.54972693 14.62315506 12.84181083 18.375 22.5625 C20.56899951 34.62949732 20.41121938 44.94920942 13.92578125 55.74609375 C12.74426592 58.62260998 12.96650624 60.09360207 14 63 C17.47148538 65.31432359 18.78008342 65.24851917 22.87416077 65.24482727 C24.71399033 65.2507338 24.71399033 65.2507338 26.59098816 65.25675964 C27.95266783 65.25115029 29.3143469 65.24539273 30.67602539 65.23950195 C32.10850118 65.24061474 33.54097649 65.24267241 34.97344971 65.24560547 C38.06077165 65.2503317 41.14801758 65.24920318 44.23533821 65.24382973 C49.123699 65.23622296 54.01191324 65.24687372 58.9002533 65.2610321 C72.80191578 65.29877524 86.70351319 65.31698779 100.60522461 65.30541992 C108.28134154 65.29918981 115.95722263 65.31085721 123.63328165 65.34186524 C128.48538739 65.36046148 133.33682221 65.35725576 138.18891633 65.33769763 C141.22034978 65.33077971 144.25142556 65.34484444 147.28279114 65.36464691 C148.6799015 65.36966344 150.07707349 65.36628939 151.47413445 65.35351372 C161.07460532 65.27202308 168.84939245 66.28223872 176.14030552 72.96043873 C183.63659409 80.6855825 184.4456876 88.79018519 184.43237305 99.10742188 C184.4425647 100.2985257 184.45275635 101.48962952 184.46325684 102.71682739 C184.4881554 105.96011605 184.50009078 109.20313229 184.50611091 112.44650078 C184.51553378 115.84448987 184.5417401 119.24235 184.56611633 122.64025879 C184.60967797 129.06442308 184.63828819 135.48856219 184.66143972 141.91282892 C184.68854706 149.23096677 184.73245497 156.54897421 184.77772844 163.8670187 C184.8704265 178.91127538 184.94217489 193.9555658 185 209 C185.63446045 207.88141602 185.63446045 207.88141602 186.28173828 206.74023438 C187.87651877 203.93467459 189.4762052 201.13198438 191.07910156 198.33105469 C191.76755682 197.12577588 192.45413216 195.91942101 193.13867188 194.71191406 C200.50145962 181.73015672 207.10859348 170.51726112 221.55078125 164.91796875 C231.54117841 162.25914278 241.87890035 162.96585462 251 168 C252.03125 168.556875 253.0625 169.11375 254.125 169.6875 C263.52439766 177.24788507 268.56106672 185.35988454 269.9375 197.375 C271.05374013 209.29204251 265.68317463 219.23140442 259.75 229.125 C259.0318888 230.34776654 258.31528372 231.57141871 257.60009766 232.79589844 C256.13064333 235.3078785 254.65382957 237.81528951 253.17089844 240.31933594 C250.48353516 244.86426863 247.85610211 249.44319313 245.2277832 254.02246094 C239.31694334 264.31911438 233.33319508 274.57282541 227.33935547 284.82128906 C222.50149139 293.10818268 217.73982427 301.43753055 212.98883057 309.77435303 C207.11751225 320.07449354 201.17209169 330.33001148 195.18359375 340.5625 C194.70064032 341.40186159 194.21768688 342.24122318 193.7200985 343.10601997 C192.5931116 345.00211927 191.41602074 346.86951246 190.1862278 348.70060539 C185.25941179 356.29894381 184.00640977 361.98919079 184.19287109 370.95361328 C184.1901268 372.1877597 184.18738251 373.42190613 184.18455505 374.69345093 C184.18330403 377.35311128 184.19440621 380.00908966 184.22751999 382.66818619 C184.27941584 386.88113623 184.2791362 391.09316018 184.27212524 395.30636597 C184.26546719 403.48782739 184.31047808 411.6685962 184.36136627 419.84986877 C184.42381015 430.27020344 184.4628846 440.69041215 184.45478308 451.11094081 C184.45324256 455.29008867 184.47711537 459.4680534 184.52166343 463.64695382 C184.5500369 466.86631985 184.54635071 470.08570181 184.54833984 473.30517578 C184.5679628 474.44726501 184.58758575 475.58935425 184.60780334 476.76605225 C184.56586061 485.47209039 182.41076007 491.96640548 176.75390625 498.65625 C176.03074219 499.2646875 175.30757813 499.873125 174.5625 500.5 C173.84191406 501.1290625 173.12132812 501.758125 172.37890625 502.40625 C167.67425072 505.55813745 163.12174044 506.25025788 157.54245377 506.26006222 C156.25478489 506.26712781 154.96711602 506.2741934 153.64042687 506.2814731 C152.21863795 506.27922193 150.79684933 506.27677546 149.37506104 506.27415466 C147.85908041 506.27860847 146.34310211 506.28392298 144.82712722 506.29002339 C140.66419231 506.30419668 136.5013321 506.30586681 132.33837652 506.30542648 C127.84743552 506.30707527 123.35652523 506.3201429 118.86560059 506.33161926 C109.04741618 506.35446306 99.2292534 506.36238911 89.41104603 506.36744571 C83.27974183 506.37070325 77.1484439 506.37722605 71.01714325 506.3844471 C54.0386335 506.40401171 37.06012957 506.4204169 20.08160782 506.42332363 C18.99525322 506.4235112 17.90889863 506.42369877 16.7896242 506.42389202 C14.58735895 506.42425827 12.3850937 506.42462197 10.18282846 506.42498314 C8.54303638 506.42525735 8.54303638 506.42525735 6.87011719 506.42553711 C5.77558706 506.42571766 4.68105694 506.42589821 3.55335924 506.42608423 C-14.18370675 506.42962621 -31.92065135 506.45665077 -49.65767524 506.494035 C-67.87145986 506.53211669 -86.08518424 506.5514811 -104.29900956 506.55178314 C-114.52406421 506.55236772 -124.74897403 506.56086008 -134.97399139 506.58978081 C-143.68023461 506.61429273 -152.38628018 506.62157878 -161.09254858 506.60653328 C-165.53335813 506.59936379 -169.97377735 506.60022345 -174.41454315 506.62294388 C-178.48352252 506.64356242 -182.55181219 506.64090712 -186.62078431 506.62006903 C-188.08914982 506.61657962 -189.55756539 506.62146099 -191.02586529 506.63577347 C-200.56473869 506.72272865 -208.66443386 505.98252433 -215.89913917 499.22652239 C-222.22861376 492.3800224 -224.12045957 485.41070293 -224.13422108 476.26224327 C-224.13657331 475.59455038 -224.13892554 474.92685749 -224.14134905 474.23893148 C-224.14801544 471.99759929 -224.14758154 469.75632539 -224.14717102 467.51498413 C-224.15047111 465.89333624 -224.15419698 464.27168916 -224.1583125 462.65004313 C-224.16832399 458.1903553 -224.17204792 453.73068093 -224.17470181 449.27098346 C-224.17860734 444.46235759 -224.18818545 439.65374236 -224.19691467 434.84512329 C-224.21667117 423.23118641 -224.22674388 411.61724866 -224.23564246 400.00329918 C-224.24002635 394.53360782 -224.24539287 389.06391743 -224.25063133 383.59422684 C-224.26764215 365.41135802 -224.28213657 347.2284898 -224.28938007 329.04561424 C-224.29128995 324.32777277 -224.29321029 319.6099313 -224.29516602 314.89208984 C-224.29564976 313.71950055 -224.2961335 312.54691125 -224.2966319 311.33878894 C-224.30493315 292.34138664 -224.33027235 273.34404728 -224.36274669 254.34667246 C-224.39581752 234.84131574 -224.41382882 215.33599101 -224.41702431 195.8306061 C-224.41918929 184.87949699 -224.42793633 173.9284797 -224.45348549 162.97739792 C-224.4751927 153.65158518 -224.48324274 144.32588656 -224.47351871 135.00005142 C-224.46897421 130.24323878 -224.47086906 125.48666163 -224.49028015 120.72988129 C-224.50791365 116.37100811 -224.50691261 112.01254218 -224.49138286 107.65366466 C-224.48900709 106.08094552 -224.49332877 104.50819817 -224.50521151 102.93552212 C-224.5835016 91.8850062 -223.88119078 80.86098725 -215.79216099 72.48625565 C-207.74049936 65.80893836 -199.52185889 65.27589885 -189.41821289 65.35644531 C-187.97333629 65.34961698 -186.52846869 65.34058784 -185.08361816 65.32954407 C-181.18932352 65.30580275 -177.2956054 65.31221115 -173.40127873 65.32403278 C-169.31736944 65.33091415 -165.23361984 65.30873752 -161.14976501 65.28948975 C-153.42586545 65.25727366 -145.70215277 65.24937116 -137.9781937 65.25106406 C-126.62678831 65.25252845 -115.27547348 65.21899474 -103.92413235 65.18333054 C-102.249506 65.1781058 -100.57487965 65.17288346 -98.9002533 65.16766357 C-98.08289387 65.16505862 -97.26553444 65.16245367 -96.42340654 65.15976977 C-91.5637093 65.14512953 -86.70407647 65.13818682 -81.84435761 65.13801527 C-78.82870012 65.1373693 -75.81305452 65.1330248 -72.79740143 65.12804222 C-71.39734138 65.12667893 -69.9972784 65.1270583 -68.59721947 65.12928963 C-66.68953479 65.13218967 -64.78184348 65.12855907 -62.87416077 65.12457275 C-61.80588578 65.1246143 -60.7376108 65.12465584 -59.63696384 65.12469864 C-56.89094855 65.11423998 -56.89094855 65.11423998 -54 64 C-52.20507474 57.78679716 -53.90232907 54.22081941 -56.7734375 48.55078125 C-60.72070181 40.34198 -59.9890014 30.15033236 -57.375 21.625 C-53.36218708 11.05979676 -45.75713885 3.04460142 -35.625 -1.9375 C-24.57025906 -6.16884571 -10.39328636 -5.84208612 0 0 Z " fill="#EDEDED" transform="translate(233,5)"/>
<path d="M0 0 C8.82733036 5.54972693 14.62315506 12.84181083 18.375 22.5625 C20.56899951 34.62949732 20.41121938 44.94920942 13.92578125 55.74609375 C12.74426592 58.62260998 12.96650624 60.09360207 14 63 C17.47148538 65.31432359 18.78008342 65.24851917 22.87416077 65.24482727 C24.71399033 65.2507338 24.71399033 65.2507338 26.59098816 65.25675964 C27.95266783 65.25115029 29.3143469 65.24539273 30.67602539 65.23950195 C32.10850118 65.24061474 33.54097649 65.24267241 34.97344971 65.24560547 C38.06077165 65.2503317 41.14801758 65.24920318 44.23533821 65.24382973 C49.123699 65.23622296 54.01191324 65.24687372 58.9002533 65.2610321 C72.80191578 65.29877524 86.70351319 65.31698779 100.60522461 65.30541992 C108.28134154 65.29918981 115.95722263 65.31085721 123.63328165 65.34186524 C128.48538739 65.36046148 133.33682221 65.35725576 138.18891633 65.33769763 C141.22034978 65.33077971 144.25142556 65.34484444 147.28279114 65.36464691 C148.6799015 65.36966344 150.07707349 65.36628939 151.47413445 65.35351372 C161.07460532 65.27202308 168.84939245 66.28223872 176.14030552 72.96043873 C183.63659409 80.6855825 184.4456876 88.79018519 184.43237305 99.10742188 C184.4425647 100.2985257 184.45275635 101.48962952 184.46325684 102.71682739 C184.4881554 105.96011605 184.50009078 109.20313229 184.50611091 112.44650078 C184.51553378 115.84448987 184.5417401 119.24235 184.56611633 122.64025879 C184.60967797 129.06442308 184.63828819 135.48856219 184.66143972 141.91282892 C184.68854706 149.23096677 184.73245497 156.54897421 184.77772844 163.8670187 C184.8704265 178.91127538 184.94217489 193.9555658 185 209 C185.63446045 207.88141602 185.63446045 207.88141602 186.28173828 206.74023438 C187.87651877 203.93467459 189.4762052 201.13198438 191.07910156 198.33105469 C191.76755682 197.12577588 192.45413216 195.91942101 193.13867188 194.71191406 C200.50145962 181.73015672 207.10859348 170.51726112 221.55078125 164.91796875 C231.54117841 162.25914278 241.87890035 162.96585462 251 168 C252.03125 168.556875 253.0625 169.11375 254.125 169.6875 C263.52439766 177.24788507 268.56106672 185.35988454 269.9375 197.375 C271.05374013 209.29204251 265.68317463 219.23140442 259.75 229.125 C259.0318888 230.34776654 258.31528372 231.57141871 257.60009766 232.79589844 C256.13064333 235.3078785 254.65382957 237.81528951 253.17089844 240.31933594 C250.48353516 244.86426863 247.85610211 249.44319313 245.2277832 254.02246094 C239.31694334 264.31911438 233.33319508 274.57282541 227.33935547 284.82128906 C222.50149139 293.10818268 217.73982427 301.43753055 212.98883057 309.77435303 C207.11751225 320.07449354 201.17209169 330.33001148 195.18359375 340.5625 C194.70064032 341.40186159 194.21768688 342.24122318 193.7200985 343.10601997 C192.5931116 345.00211927 191.41602074 346.86951246 190.1862278 348.70060539 C185.25941179 356.29894381 184.00640977 361.98919079 184.19287109 370.95361328 C184.1901268 372.1877597 184.18738251 373.42190613 184.18455505 374.69345093 C184.18330403 377.35311128 184.19440621 380.00908966 184.22751999 382.66818619 C184.27941584 386.88113623 184.2791362 391.09316018 184.27212524 395.30636597 C184.26546719 403.48782739 184.31047808 411.6685962 184.36136627 419.84986877 C184.42381015 430.27020344 184.4628846 440.69041215 184.45478308 451.11094081 C184.45324256 455.29008867 184.47711537 459.4680534 184.52166343 463.64695382 C184.5500369 466.86631985 184.54635071 470.08570181 184.54833984 473.30517578 C184.5679628 474.44726501 184.58758575 475.58935425 184.60780334 476.76605225 C184.56586061 485.47209039 182.41076007 491.96640548 176.75390625 498.65625 C176.03074219 499.2646875 175.30757813 499.873125 174.5625 500.5 C173.84191406 501.1290625 173.12132812 501.758125 172.37890625 502.40625 C167.67425072 505.55813745 163.12174044 506.25025788 157.54245377 506.26006222 C156.25478489 506.26712781 154.96711602 506.2741934 153.64042687 506.2814731 C152.21863795 506.27922193 150.79684933 506.27677546 149.37506104 506.27415466 C147.85908041 506.27860847 146.34310211 506.28392298 144.82712722 506.29002339 C140.66419231 506.30419668 136.5013321 506.30586681 132.33837652 506.30542648 C127.84743552 506.30707527 123.35652523 506.3201429 118.86560059 506.33161926 C109.04741618 506.35446306 99.2292534 506.36238911 89.41104603 506.36744571 C83.27974183 506.37070325 77.1484439 506.37722605 71.01714325 506.3844471 C54.0386335 506.40401171 37.06012957 506.4204169 20.08160782 506.42332363 C18.99525322 506.4235112 17.90889863 506.42369877 16.7896242 506.42389202 C14.58735895 506.42425827 12.3850937 506.42462197 10.18282846 506.42498314 C8.54303638 506.42525735 8.54303638 506.42525735 6.87011719 506.42553711 C5.77558706 506.42571766 4.68105694 506.42589821 3.55335924 506.42608423 C-14.18370675 506.42962621 -31.92065135 506.45665077 -49.65767524 506.494035 C-67.87145986 506.53211669 -86.08518424 506.5514811 -104.29900956 506.55178314 C-114.52406421 506.55236772 -124.74897403 506.56086008 -134.97399139 506.58978081 C-143.68023461 506.61429273 -152.38628018 506.62157878 -161.09254858 506.60653328 C-165.53335813 506.59936379 -169.97377735 506.60022345 -174.41454315 506.62294388 C-178.48352252 506.64356242 -182.55181219 506.64090712 -186.62078431 506.62006903 C-188.08914982 506.61657962 -189.55756539 506.62146099 -191.02586529 506.63577347 C-200.56473869 506.72272865 -208.66443386 505.98252433 -215.89913917 499.22652239 C-222.22861376 492.3800224 -224.12045957 485.41070293 -224.13422108 476.26224327 C-224.13657331 475.59455038 -224.13892554 474.92685749 -224.14134905 474.23893148 C-224.14801544 471.99759929 -224.14758154 469.75632539 -224.14717102 467.51498413 C-224.15047111 465.89333624 -224.15419698 464.27168916 -224.1583125 462.65004313 C-224.16832399 458.1903553 -224.17204792 453.73068093 -224.17470181 449.27098346 C-224.17860734 444.46235759 -224.18818545 439.65374236 -224.19691467 434.84512329 C-224.21667117 423.23118641 -224.22674388 411.61724866 -224.23564246 400.00329918 C-224.24002635 394.53360782 -224.24539287 389.06391743 -224.25063133 383.59422684 C-224.26764215 365.41135802 -224.28213657 347.2284898 -224.28938007 329.04561424 C-224.29128995 324.32777277 -224.29321029 319.6099313 -224.29516602 314.89208984 C-224.29564976 313.71950055 -224.2961335 312.54691125 -224.2966319 311.33878894 C-224.30493315 292.34138664 -224.33027235 273.34404728 -224.36274669 254.34667246 C-224.39581752 234.84131574 -224.41382882 215.33599101 -224.41702431 195.8306061 C-224.41918929 184.87949699 -224.42793633 173.9284797 -224.45348549 162.97739792 C-224.4751927 153.65158518 -224.48324274 144.32588656 -224.47351871 135.00005142 C-224.46897421 130.24323878 -224.47086906 125.48666163 -224.49028015 120.72988129 C-224.50791365 116.37100811 -224.50691261 112.01254218 -224.49138286 107.65366466 C-224.48900709 106.08094552 -224.49332877 104.50819817 -224.50521151 102.93552212 C-224.5835016 91.8850062 -223.88119078 80.86098725 -215.79216099 72.48625565 C-207.74049936 65.80893836 -199.52185889 65.27589885 -189.41821289 65.35644531 C-187.97333629 65.34961698 -186.52846869 65.34058784 -185.08361816 65.32954407 C-181.18932352 65.30580275 -177.2956054 65.31221115 -173.40127873 65.32403278 C-169.31736944 65.33091415 -165.23361984 65.30873752 -161.14976501 65.28948975 C-153.42586545 65.25727366 -145.70215277 65.24937116 -137.9781937 65.25106406 C-126.62678831 65.25252845 -115.27547348 65.21899474 -103.92413235 65.18333054 C-102.249506 65.1781058 -100.57487965 65.17288346 -98.9002533 65.16766357 C-98.08289387 65.16505862 -97.26553444 65.16245367 -96.42340654 65.15976977 C-91.5637093 65.14512953 -86.70407647 65.13818682 -81.84435761 65.13801527 C-78.82870012 65.1373693 -75.81305452 65.1330248 -72.79740143 65.12804222 C-71.39734138 65.12667893 -69.9972784 65.1270583 -68.59721947 65.12928963 C-66.68953479 65.13218967 -64.78184348 65.12855907 -62.87416077 65.12457275 C-61.80588578 65.1246143 -60.7376108 65.12465584 -59.63696384 65.12469864 C-56.89094855 65.11423998 -56.89094855 65.11423998 -54 64 C-52.20507474 57.78679716 -53.90232907 54.22081941 -56.7734375 48.55078125 C-60.72070181 40.34198 -59.9890014 30.15033236 -57.375 21.625 C-53.36218708 11.05979676 -45.75713885 3.04460142 -35.625 -1.9375 C-24.57025906 -6.16884571 -10.39328636 -5.84208612 0 0 Z M-178 111 C-178 226.5 -178 342 -178 461 C-73.72 461 30.56 461 138 461 C138 446.81 138 432.62 138 418 C122.87206359 425.13015141 122.87206359 425.13015141 108.078125 432.78515625 C104.42575573 434.22663701 101.8914305 434.51178766 98 434 C94.84135238 430.87943635 94.53761355 428.14242572 94.26953125 423.8125 C94.18767578 422.57056885 94.10582031 421.3286377 94.02148438 420.04907227 C93.94941196 418.69950811 93.87981278 417.34980993 93.8125 416 C93.75968872 414.96974197 93.75968872 414.96974197 93.70581055 413.91867065 C93.56222211 411.06542804 93.42365339 408.21217633 93.30227661 405.3578949 C93.10413963 400.74806625 92.77546313 396.16499806 92.38671875 391.56640625 C91.23949695 374.34141828 95.30958301 364.09555164 104.98144531 350.02148438 C108.41287398 344.88513203 111.39763718 339.49892118 114.4375 334.125 C115.67653296 331.97028788 116.91743171 329.81664762 118.16015625 327.6640625 C118.78293457 326.58286133 119.40571289 325.50166016 120.04736328 324.38769531 C122.11142758 320.80668054 124.1783705 317.22734013 126.24609375 313.6484375 C127.28592855 311.84814134 128.32572267 310.04782169 129.36550903 308.24749756 C130.35717984 306.53084792 131.34936163 304.8144935 132.34155273 303.09814453 C132.93782471 302.06544434 133.53409668 301.03274414 134.1484375 299.96875 C134.67614746 299.05544922 135.20385742 298.14214844 135.74755859 297.20117188 C137.99146039 293.25750353 138.13889418 290.35741569 138.12025452 285.88803101 C138.12110894 285.14719918 138.12196337 284.40636735 138.12284368 283.64308608 C138.12449753 281.14793813 138.11897865 278.65285665 138.11352539 276.15771484 C138.11324347 274.3741913 138.11340134 272.59066764 138.1139679 270.80714417 C138.11425569 265.95410149 138.10836186 261.10108335 138.10139394 256.2480464 C138.09515741 251.18047172 138.09455636 246.11289653 138.09336853 241.0453186 C138.0902561 231.44411103 138.08204389 221.84291479 138.07201904 212.24171221 C138.06085517 201.3132175 138.05534676 190.38472225 138.05032361 179.45622325 C138.03986121 156.97080776 138.02151682 134.48540782 138 112 C112.59 112 87.18 112 61 112 C60.34 115.3 59.68 118.6 59 122 C56.27071954 124.72928046 54.7931401 124.25370693 50.97120667 124.26069641 C49.68542725 124.26778122 48.39964783 124.27486603 47.0749054 124.28216553 C45.64181484 124.27987149 44.20872461 124.27736176 42.77563477 124.2746582 C41.27283474 124.27900334 39.77003693 124.28418582 38.26724243 124.29014587 C34.17842202 124.30356873 30.08969385 124.3041109 26.00085568 124.30158257 C22.59116013 124.30051505 19.18148341 124.30539062 15.77179188 124.310188 C7.72960156 124.32129462 -0.31254205 124.32171415 -8.35473633 124.31567383 C-16.65948878 124.30963233 -24.96407188 124.32194682 -33.26879543 124.3432439 C-40.39155232 124.36084024 -47.51425521 124.36686436 -54.63703305 124.36360615 C-58.89439021 124.36178995 -63.1516266 124.36446285 -67.40896416 124.37832069 C-71.41201334 124.39086249 -75.41479792 124.38898982 -79.41784286 124.37590981 C-80.88885015 124.37353645 -82.35987585 124.37630578 -83.83086205 124.38453293 C-85.83529165 124.39493703 -87.83979611 124.38513262 -89.84422302 124.3742218 C-90.96713462 124.37438954 -92.09004622 124.37455729 -93.24698544 124.37473011 C-96 124 -96 124 -99 121 C-99.33 117.7 -99.66 114.4 -100 111 C-125.74 111 -151.48 111 -178 111 Z " fill="#010101" transform="translate(233,5)"/>
<path d="M0 0 C0.84691406 -0.00274933 1.69382812 -0.00549866 2.56640625 -0.0083313 C3.487099 -0.00114075 4.40779175 0.0060498 5.35638428 0.01345825 C6.33232544 0.0131662 7.3082666 0.01287415 8.31378174 0.01257324 C11.53868509 0.01396626 14.76335723 0.02952633 17.98822021 0.04519653 C20.22452671 0.04892676 22.46083484 0.05177369 24.69714355 0.05377197 C30.58262648 0.06140767 36.46801067 0.0810557 42.35345459 0.10317993 C48.35930038 0.12363967 54.36516212 0.13277397 60.37103271 0.14285278 C72.15493026 0.16430157 83.93875453 0.19843684 95.72259521 0.24050903 C95.72259521 5.52050903 95.72259521 10.80050903 95.72259521 16.24050903 C94.61425827 16.24415466 93.50592133 16.24780029 92.36399841 16.2515564 C81.9310098 16.28845973 71.49831763 16.34618106 61.06555462 16.42441177 C55.70162906 16.46396097 50.33786951 16.49611286 44.97381592 16.51150513 C39.7994662 16.52662278 34.62557264 16.56098087 29.45142555 16.60881805 C27.47506482 16.62368248 25.49863897 16.63155293 23.52222252 16.63239288 C20.75868172 16.63474912 17.9964154 16.66171924 15.23309326 16.6946106 C14.41166336 16.68958023 13.59023346 16.68454987 12.74391174 16.67936707 C8.47246398 16.67339973 8.47246398 16.67339973 5.0124687 18.88368225 C3.35291202 21.91598556 3.34658152 24.01501784 3.34507179 27.46871948 C3.33724855 28.75610645 3.32942531 30.04349342 3.321365 31.36989212 C3.32785142 32.80170058 3.3346214 34.23350779 3.34164429 35.66531372 C3.33818885 37.18384513 3.33342506 38.70237404 3.32746255 40.22089767 C3.31490715 44.39998495 3.32114348 48.57886742 3.33042121 52.75795555 C3.33719283 57.26244896 3.32673986 61.76690648 3.31848145 66.27139282 C3.30512171 75.09815659 3.30803181 83.92484396 3.31671937 92.75161076 C3.32348671 99.92349438 3.32441676 107.09535654 3.32114792 114.26724243 C3.32068822 115.28687852 3.32022852 116.3065146 3.31975489 117.35704875 C3.31879574 119.4282357 3.3178231 121.49942264 3.31683712 123.57060957 C3.30827666 143.0051086 3.31812763 162.43956522 3.33423822 181.87405729 C3.34764199 198.5600312 3.34531408 215.2459425 3.33148193 231.93191528 C3.31543769 251.29552365 3.3091007 270.65909481 3.31831872 290.02270889 C3.3192744 292.0863978 3.32021751 294.15008672 3.32114792 296.21377563 C3.32161075 297.22922541 3.32207357 298.24467519 3.32255042 299.29089618 C3.32514378 306.45652326 3.32076187 313.62212681 3.31370926 320.78775024 C3.30530689 329.51687675 3.30754773 338.24592229 3.32355149 346.97503948 C3.33145127 351.43119451 3.33449686 355.88721442 3.32460403 360.34336853 C3.31569181 364.41937797 3.32053228 368.49512652 3.33653669 372.57111216 C3.33989929 374.04884409 3.33815741 375.52659787 3.33090933 377.00431585 C3.32183689 379.00696178 3.33290214 381.00966909 3.34507179 383.01229858 C3.34555885 384.12650806 3.34604591 385.24071754 3.34654772 386.38869095 C3.77741855 389.65627084 4.26928927 391.03784571 6.72259521 393.24050903 C9.335523 393.84078169 9.335523 393.84078169 12.36203003 393.74108028 C14.13429616 393.75580172 14.13429616 393.75580172 15.94236565 393.77082056 C17.24672129 393.76121555 18.55107693 393.75161054 19.8949585 393.74171448 C21.28959788 393.74560505 22.68423332 393.75124354 24.07885933 393.75848538 C27.92016157 393.77329335 31.76105612 393.76302749 35.60234547 393.74874866 C39.74146899 393.73767288 43.88053371 393.74957017 48.01965332 393.7585907 C56.13169704 393.77254842 64.24358545 393.76494837 72.35562181 393.74991512 C81.79554694 393.73308461 91.23543306 393.73626153 100.67536855 393.7400092 C117.51470994 393.74589241 134.35397663 393.73169812 151.19329834 393.70706177 C167.54619141 393.68313964 183.89898467 393.67605692 200.25189209 393.68655396 C218.04434428 393.69795453 235.83675027 393.69990389 253.62920189 393.68545586 C255.5252215 393.68392996 257.42124112 393.68240961 259.31726074 393.68089485 C260.25022291 393.68013704 261.18318508 393.67937922 262.14441884 393.67859844 C268.72991249 393.67384895 275.31538556 393.67571176 281.90087891 393.67996025 C289.92263137 393.68487896 297.94428933 393.6789382 305.96602011 393.65906595 C310.06154695 393.64917124 314.15692968 393.64411219 318.25246429 393.65195847 C321.99786756 393.65898733 325.74297929 393.65227681 329.48834395 393.63435484 C331.49316595 393.62835973 333.4980151 393.63716384 335.50282478 393.64640135 C336.68433554 393.6379614 337.86584629 393.62952146 339.0831604 393.62082577 C340.10715879 393.61979664 341.13115719 393.61876751 342.18618584 393.61770719 C344.7562351 393.4397341 344.7562351 393.4397341 346.55434513 391.87687451 C348.29334755 389.44105742 348.05138039 387.53567335 347.99627686 384.57009888 C347.9837941 383.40393036 347.97131134 382.23776184 347.95845032 381.03625488 C347.9334697 379.77076813 347.90848907 378.50528137 347.88275146 377.20144653 C347.87393605 375.19939983 347.86518521 373.19735076 347.85993862 371.19529152 C347.84452403 366.26956437 347.80354672 361.34500512 347.70574951 356.42019653 C347.15295269 326.85690993 347.15295269 326.85690993 357.39151001 313.98886108 C359.38323998 311.37276621 361.03290408 308.56421625 362.71589661 305.74304199 C363.04810715 305.24720612 363.38031769 304.75137024 363.72259521 304.24050903 C364.05259521 304.24050903 364.38259521 304.24050903 364.72259521 304.24050903 C364.81529624 316.78405044 364.88636101 329.32751028 364.9298439 341.87132454 C364.95071407 347.69600656 364.97902184 353.52045413 365.02435303 359.34500122 C365.06783031 364.96655455 365.09173661 370.58788242 365.10210419 376.20959091 C365.10949211 378.35380477 365.12391899 380.49800636 365.14551544 382.64212418 C365.17457389 385.64670681 365.17855012 388.65035916 365.17669678 391.65505981 C365.19826843 392.98323479 365.19826843 392.98323479 365.22027588 394.33824158 C365.18387641 399.79566245 364.4077145 402.94697401 360.72259521 407.24050903 C357.40240292 410.33624433 355.09632778 410.61659653 350.60929298 410.62082577 C349.34752318 410.62926571 348.08575338 410.63770565 346.78574812 410.64640135 C345.38282954 410.64060589 343.9799121 410.63452485 342.57699585 410.62818909 C341.08876276 410.63236051 339.60053284 410.63783697 338.11230886 410.6445089 C334.01689871 410.6590077 329.92168905 410.65470501 325.82626772 410.64734209 C321.41171135 410.6426236 316.99719919 410.65510859 312.58265686 410.6653595 C303.93169189 410.68257919 295.28079945 410.6833809 286.62982179 410.67814659 C279.59954466 410.67410931 272.56928901 410.67554318 265.53901291 410.68089485 C264.03956624 410.68201748 264.03956624 410.68201748 262.50982773 410.6831628 C260.47923124 410.68469424 258.44863477 410.68623258 256.41803829 410.68777777 C237.36356486 410.70151444 218.30913244 410.69605707 199.25465994 410.68459255 C181.81547169 410.67466037 164.37638955 410.68759852 146.93721767 410.71152674 C129.0399146 410.73589893 111.14266099 410.74553016 93.24534166 410.73887402 C83.19367728 410.73537743 73.14209451 410.73764274 63.09044266 410.75512505 C54.53299984 410.76982359 45.97569608 410.77051334 37.41825606 410.75305413 C33.05092316 410.74452208 28.68383893 410.7424481 24.31651878 410.75770569 C20.31928757 410.77149759 16.32251933 410.76686105 12.32531528 410.74746645 C10.8785019 410.74368912 9.43165192 410.74667811 7.98487099 410.7570781 C-4.16991404 410.83824491 -4.16991404 410.83824491 -8.0523777 408.45918369 C-11.07704724 405.44314955 -12.17076188 403.51507982 -12.53040445 399.21671683 C-12.5318133 398.02102983 -12.53322215 396.82534283 -12.53467369 395.59342289 C-12.53817977 394.92339789 -12.54168584 394.25337289 -12.54529816 393.5630441 C-12.55463545 391.30775042 -12.54968294 389.05271364 -12.54483032 386.79740906 C-12.5485654 385.16822201 -12.55316635 383.53903675 -12.55856097 381.90985435 C-12.57082377 377.4249027 -12.57052666 372.94002545 -12.56817222 368.45506084 C-12.56776488 363.62130443 -12.57879514 358.78757214 -12.58828735 353.9538269 C-12.60491577 344.48104513 -12.61039771 335.00828823 -12.61151211 325.53549308 C-12.61246161 317.83825844 -12.61656701 310.14103202 -12.62291336 302.44379997 C-12.64052999 280.63443299 -12.64975145 258.82508571 -12.64825241 237.01571155 C-12.6481725 235.83942353 -12.64809259 234.66313551 -12.64801025 233.45120239 C-12.64792849 232.27348312 -12.64784673 231.09576384 -12.64776249 229.8823561 C-12.64694924 210.78706847 -12.6660957 191.69185965 -12.69428699 172.59659482 C-12.72298622 153.00315339 -12.73682895 133.40975045 -12.73509943 113.81628746 C-12.73443456 102.81058706 -12.73996964 91.8049693 -12.76145554 80.7992878 C-12.77962832 71.43045368 -12.78404681 62.06173967 -12.77043669 52.6928956 C-12.76388755 47.91050999 -12.76385975 43.12835508 -12.78114319 38.34599113 C-12.79679314 33.97073063 -12.79409363 29.59588528 -12.77657492 25.22063541 C-12.77348714 23.63521035 -12.77720385 22.04975493 -12.78829508 20.46436567 C-12.80234915 18.31354893 -12.79188515 16.16420203 -12.77518272 14.01343632 C-12.77561746 12.81758697 -12.7760522 11.62173761 -12.77650011 10.3896504 C-12.17654095 6.60408854 -10.91872701 4.96384045 -8.27740479 2.24050903 C-5.46431668 0.39960426 -3.33187089 -0.00837153 0 0 Z " fill="#C88456" transform="translate(37.27740478515625,85.75949096679688)"/>
<path d="M0 0 C7.53285806 5.09283624 11.76879621 11.92324096 13.82421875 20.71484375 C14.64785516 29.65991826 14.23199594 36.85519285 9.82421875 44.71484375 C9.49421875 45.70484375 9.16421875 46.69484375 8.82421875 47.71484375 C9.56865234 48.15183594 9.56865234 48.15183594 10.328125 48.59765625 C21.28968707 55.21203336 29.27901144 63.33502476 33.24414062 75.86206055 C34.40644191 81.57817609 34.26503641 87.40794769 34.21533203 93.21826172 C34.19915137 95.47423843 34.21529431 97.72845039 34.234375 99.984375 C34.2323941 101.4309935 34.22855359 102.87761091 34.22265625 104.32421875 C34.21927246 105.62327148 34.21588867 106.92232422 34.21240234 108.26074219 C33.79408004 111.98302143 33.20132334 113.83842383 30.82421875 116.71484375 C26.30262707 119.17121644 21.91619564 119.01724221 16.90649414 119.02124023 C16.01807327 119.02956375 15.1296524 119.03788727 14.21430969 119.04646301 C11.28345331 119.07051855 8.35281957 119.07932885 5.421875 119.0859375 C3.38073155 119.09490581 1.33958877 119.1040277 -0.70155334 119.11329651 C-4.97772824 119.12977598 -9.25382492 119.13748498 -13.5300293 119.14038086 C-19.00570832 119.14576961 -24.48065138 119.18347476 -29.9561224 119.22912502 C-34.17093079 119.2588826 -38.38556146 119.26610411 -42.60046577 119.26710701 C-44.61907898 119.27131035 -46.63769267 119.28374916 -48.65620232 119.30462456 C-51.48090549 119.33151728 -54.30389577 119.32672032 -57.12866211 119.31420898 C-57.95950317 119.32904327 -58.79034424 119.34387756 -59.6463623 119.35916138 C-63.79738826 119.30687412 -66.3928696 118.95607378 -69.6787262 116.30238342 C-74.53789003 111.26714033 -73.39789851 105.4829096 -73.41601562 98.86865234 C-73.4256193 96.75056121 -73.45659012 94.63348402 -73.48828125 92.515625 C-73.58749296 80.05090085 -71.1305582 71.1190409 -64.17578125 60.71484375 C-63.30953125 59.38453125 -63.30953125 59.38453125 -62.42578125 58.02734375 C-59.41665905 54.93463482 -55.99667533 52.66027881 -52.41796875 50.265625 C-50.10936382 48.76798046 -50.10936382 48.76798046 -48.17578125 46.71484375 C-48.53671875 46.02261719 -48.89765625 45.33039063 -49.26953125 44.6171875 C-53.66391388 35.35236413 -55.39456141 26.19485734 -51.99609375 16.26953125 C-49.47931465 10.96212662 -46.78648464 6.44731792 -42.17578125 2.71484375 C-41.263125 1.94720703 -41.263125 1.94720703 -40.33203125 1.1640625 C-28.46649474 -8.39682173 -12.69987584 -7.50136293 0 0 Z " fill="#030202" transform="translate(157.17578125,165.28515625)"/>
<path d="M0 0 C6.30195877 3.7185471 11.23632072 9.33396215 13.5625 16.3125 C14.47824519 24.49415785 12.52642637 31.15693794 8.453125 38.2421875 C6.32300774 43.19377586 6.78061788 49.59812516 8.25 54.69921875 C10.94579475 60.59626976 15.46760959 64.9477239 21.5625 67.3125 C24.20252059 67.5479457 26.7479146 67.68434421 29.390625 67.7265625 C30.13963074 67.74592865 30.88863647 67.7652948 31.66033936 67.7852478 C34.04427836 67.84485716 36.42826614 67.89135354 38.8125 67.9375 C40.43231231 67.97569701 42.05210468 68.01474975 43.671875 68.0546875 C47.63531082 68.15214904 51.59854345 68.23186277 55.5625 68.3125 C55.5625 77.8825 55.5625 87.4525 55.5625 97.3125 C12.3325 97.3125 -30.8975 97.3125 -75.4375 97.3125 C-75.4375 87.7425 -75.4375 78.1725 -75.4375 68.3125 C-73.15972656 68.29832031 -70.88195312 68.28414063 -68.53515625 68.26953125 C-66.30088046 68.23881594 -64.06689325 68.19975255 -61.83276367 68.15991211 C-60.29380687 68.1368801 -58.75469574 68.12237148 -57.21557617 68.11694336 C-44.48164962 68.1518412 -44.48164962 68.1518412 -33.4375 62.3125 C-30.94209629 59.44634514 -30.94209629 59.44634514 -29.4375 56.3125 C-29.025 55.549375 -28.6125 54.78625 -28.1875 54 C-26.16578944 46.75553715 -27.27941424 42.26889741 -30.4375 35.625 C-33.95203601 27.90303847 -35.57030359 20.02697376 -32.51171875 11.83203125 C-25.9152856 0.37959193 -12.55294979 -5.85963121 0 0 Z " fill="#797684" transform="translate(223.4375,17.6875)"/>
<path d="M0 0 C12.80431033 -0.09269575 25.60854078 -0.16376313 38.41311836 -0.20724869 C44.35886617 -0.22811999 50.30438435 -0.25642988 56.25 -0.30175781 C61.98826224 -0.34523097 67.72630365 -0.36914054 73.46471786 -0.37950897 C75.65358837 -0.38689763 77.84244684 -0.40132592 80.0312233 -0.42292023 C83.09806654 -0.4519731 86.16399823 -0.45595512 89.23095703 -0.45410156 C90.13510849 -0.46848267 91.03925995 -0.48286377 91.97080994 -0.49768066 C97.45694171 -0.46182166 100.7320344 0.21700177 105 4 C107.74540312 7.7993192 108.38788704 10.47715581 108.45497131 15.13435364 C108.49150566 16.98582253 108.49150566 16.98582253 108.52877808 18.87469482 C108.54048809 20.23522621 108.55179661 21.5957611 108.56274414 22.95629883 C108.58483186 24.39592644 108.60801801 25.83553756 108.63221741 27.27513123 C108.70557014 32.00228321 108.74671084 36.72948651 108.78515625 41.45703125 C108.79993784 43.09374255 108.8148099 44.73045304 108.82977104 46.3671627 C108.88992375 53.19134157 108.94183864 60.01549527 108.97176456 66.83987904 C109.01458358 76.56155642 109.10465855 86.28000174 109.26393038 96.00049192 C109.3724573 102.86376004 109.42546988 109.72618074 109.43924993 116.59028453 C109.44879985 120.67359907 109.48050655 124.75354502 109.57191658 128.83591652 C110.02951365 150.31194214 107.83890461 165.57105877 94 183 C93.34 183.66 92.68 184.32 92 185 C91.99761165 184.15239955 91.99522329 183.3047991 91.99276257 182.43151379 C91.93367677 161.8260776 91.85816809 141.22075901 91.76428509 120.61545086 C91.7192821 110.65095259 91.6798779 100.68649042 91.65356445 90.72192383 C91.63062076 82.03878224 91.5972636 73.35575447 91.55129844 64.67270309 C91.5273171 60.07329056 91.50862059 55.47399111 91.50238609 50.87451744 C91.49635735 46.54806655 91.47643821 42.22190514 91.44572449 37.89556122 C91.43690864 36.30524769 91.43322898 34.71489639 91.43499184 33.1245594 C91.43663587 30.9576356 91.42002167 28.79160348 91.39872742 26.62480164 C91.39411845 25.41080028 91.38950949 24.19679892 91.38476086 22.94600964 C91.23034581 20.03018511 91.23034581 20.03018511 89.70642853 18.11087036 C86.66958256 16.13390964 83.09210467 16.56142273 79.58129883 16.56762695 C78.72254654 16.5574353 77.86379425 16.54724365 76.97901917 16.53674316 C74.13829088 16.50652973 71.29789933 16.49733452 68.45703125 16.48828125 C66.48832572 16.47144075 64.51963099 16.45329137 62.5509491 16.43388367 C57.36751681 16.38630927 52.18412827 16.35654805 47.00054932 16.33044434 C41.71186683 16.30067632 36.42333522 16.25413312 31.13476562 16.20898438 C20.75658922 16.12286663 10.37838183 16.05555904 0 16 C0 10.72 0 5.44 0 0 Z " fill="#C58255" transform="translate(294,86)"/>
<path d="M0 0 C1.02556708 -0.00694553 2.05113416 -0.01389106 3.10777903 -0.02104706 C6.55494137 -0.03938868 10.00142107 -0.02903252 13.4486084 -0.01878357 C15.91558856 -0.02583835 18.38256438 -0.03458149 20.84953308 -0.04489136 C26.86093437 -0.0650996 32.87206605 -0.06640077 38.88347375 -0.05826581 C43.7684699 -0.05196923 48.65341082 -0.05309968 53.53840637 -0.05953789 C54.23332519 -0.06043954 54.92824401 -0.0613412 55.64422098 -0.06227018 C57.05587893 -0.06412135 58.46753687 -0.06598391 59.8791948 -0.06785773 C73.12030556 -0.08444128 86.36130982 -0.07571212 99.60241419 -0.05887216 C111.72105474 -0.04417268 123.83944741 -0.05880597 135.95805603 -0.08764232 C148.39740558 -0.1170218 160.83664066 -0.12801299 173.27602339 -0.11846012 C174.6825253 -0.11743755 176.08902723 -0.11644294 177.49552917 -0.11547661 C178.53360249 -0.11476202 178.53360249 -0.11476202 179.59264699 -0.114033 C184.47251936 -0.11186705 189.35228358 -0.12168243 194.23213196 -0.13624763 C200.7985311 -0.15557319 207.36454255 -0.14871568 213.93094826 -0.12404823 C216.34487996 -0.11902243 218.75884654 -0.12257557 221.17275047 -0.13519669 C224.4603503 -0.15102993 227.74640974 -0.13626694 231.03393555 -0.11352539 C232.47730781 -0.13127898 232.47730781 -0.13127898 233.94983912 -0.14939123 C240.37719721 -0.05864539 240.37719721 -0.05864539 243.63700104 2.86251926 C245.01696777 5.5146637 245.01696777 5.5146637 245.07946777 8.5771637 C243.69617606 12.40155843 242.50499691 13.40579905 239.01696777 15.5146637 C235.68965701 16.10233983 232.40606167 16.05866896 229.03430176 16.02932739 C227.51410384 16.03974569 227.51410384 16.03974569 225.96319485 16.05037445 C222.56292738 16.06868933 219.16335407 16.05836731 215.76306152 16.04811096 C213.32711259 16.05516709 210.89116805 16.0639108 208.45523071 16.07421875 C202.52320696 16.09441412 196.59135998 16.09573194 190.65932393 16.08759321 C185.8382426 16.08129328 181.01721721 16.08243015 176.19613647 16.08886528 C175.16688369 16.09021776 175.16688369 16.09021776 174.11683792 16.09159757 C172.72289823 16.09344877 171.32895856 16.09531133 169.9350189 16.09718513 C156.86412371 16.11376347 143.79333646 16.10504391 130.72244775 16.08819955 C118.762975 16.07350031 106.80375343 16.08813393 94.84431303 16.11696971 C82.56425839 16.14635808 70.28431971 16.1573378 58.00423145 16.14778751 C56.61542068 16.14676496 55.22660989 16.14577035 53.83779907 16.144804 C52.8128178 16.14408942 52.8128178 16.14408942 51.76712984 16.14336039 C46.95183541 16.14119563 42.1366507 16.1510035 37.32138062 16.16557503 C30.84032988 16.18491384 24.35963264 16.17802794 17.87859726 16.15337563 C15.49733592 16.14835373 13.11603919 16.15189297 10.73480606 16.16452408 C7.48920539 16.18038087 4.24516008 16.16557189 0.99963379 16.14285278 C0.05265342 16.15468851 -0.89432695 16.16652424 -1.8700037 16.17871863 C-6.39951098 16.11410139 -8.36617038 15.98355812 -12.0717926 13.16680813 C-13.98303223 10.5146637 -13.98303223 10.5146637 -14.54553223 7.4521637 C-12.99629168 -0.63831473 -6.83339563 -0.05852172 0 0 Z " fill="#060606" transform="translate(97.9830322265625,325.48533630371094)"/>
<path d="M0 0 C0.93179423 -0.00709439 1.86358847 -0.01418877 2.82361889 -0.02149814 C5.94769149 -0.03910826 9.07052493 -0.02095753 12.19458008 -0.00291443 C14.43348762 -0.00805207 16.67239113 -0.01533217 18.9112854 -0.02459717 C24.99392751 -0.04313884 31.07613226 -0.03015478 37.15875626 -0.01050687 C43.51990534 0.00585791 49.88102625 -0.00293024 56.2421875 -0.00802612 C66.92529287 -0.0125495 77.60820527 0.0032337 88.29125977 0.03126526 C99.28156809 0.06010262 110.27162711 0.06718621 121.26196289 0.05177307 C134.50782782 0.03322215 147.75354478 0.03494901 160.99942017 0.0539875 C166.0583504 0.06086577 171.11718799 0.05981754 176.17611694 0.05244255 C182.13188859 0.04478978 188.08730045 0.05687332 194.04301071 0.08429146 C196.2307567 0.0911869 198.41853622 0.09126092 200.60628128 0.08407593 C203.5889986 0.0754078 206.57059889 0.09129312 209.55322266 0.11352539 C210.42238406 0.10528462 211.29154547 0.09704386 212.1870451 0.08855337 C216.20850154 0.14401283 218.28634629 0.32710143 221.78666687 2.47676182 C224.36068431 5.25965924 224.85382787 6.84457864 224.77661133 10.62818909 C223.34918976 13.28033352 223.34918976 13.28033352 220.77661133 15.62818909 C217.70881867 16.37689658 214.69779089 16.29846474 211.55285645 16.25637817 C210.60896041 16.26347256 209.66506438 16.27056695 208.69256544 16.27787632 C205.52160199 16.29551449 202.35185485 16.27732144 199.1809082 16.2592926 C196.91096944 16.26442917 194.64103466 16.27170846 192.37110901 16.28097534 C186.19963705 16.29953068 180.02859567 16.28652438 173.85714149 16.26688504 C167.40609843 16.25053149 160.95508336 16.25930684 154.50402832 16.2644043 C143.66951579 16.26892893 132.83520266 16.25313651 122.00073242 16.22511292 C110.85124547 16.19627487 99.70200425 16.1891916 88.55249023 16.2046051 C75.11973408 16.22314958 61.6871761 16.22143385 48.25440979 16.20239067 C43.12208524 16.19550856 37.98985199 16.19656455 32.85752869 16.20393562 C26.81641457 16.21158284 20.77565549 16.19952313 14.73460197 16.17208672 C12.5141855 16.16518541 10.29373598 16.16512348 8.07332039 16.17230225 C5.04860277 16.1809563 2.02499109 16.16510907 -0.99963379 16.14285278 C-2.32627761 16.15521393 -2.32627761 16.15521393 -3.67972231 16.1678248 C-9.59236589 16.08719765 -9.59236589 16.08719765 -12.7647171 13.77961636 C-14.79413898 10.78637671 -14.87468444 9.1741327 -14.22338867 5.62818909 C-10.06351872 -0.00442803 -6.50628618 -0.08859877 0 0 Z " fill="#070707" transform="translate(98.223388671875,424.37181091308594)"/>
<path d="M0 0 C0.94389603 -0.00694553 1.88779206 -0.01389106 2.860291 -0.02104706 C6.03108201 -0.03938015 9.20113016 -0.02903506 12.37194824 -0.01878357 C14.64188702 -0.02583879 16.9118211 -0.03458212 19.18174744 -0.04489136 C25.35314669 -0.0674383 31.52429013 -0.06443333 37.69571495 -0.05556989 C42.84267125 -0.05046884 47.98957909 -0.0577453 53.1365304 -0.06504196 C65.9695902 -0.08303103 78.80247196 -0.07661303 91.63552028 -0.05887216 C102.78418997 -0.04417274 113.93259022 -0.05880613 125.08122522 -0.08764232 C136.52617874 -0.11702474 147.97096148 -0.12750366 159.41595984 -0.11846012 C165.84249437 -0.11352163 172.26881937 -0.11579664 178.69532776 -0.13624763 C184.73647988 -0.15455122 190.77712965 -0.14871088 196.81825447 -0.12404823 C199.03867909 -0.1190237 201.25914164 -0.12257234 203.47953606 -0.13519669 C206.50443832 -0.15103805 209.52766821 -0.13626016 212.55249023 -0.11352539 C213.87913405 -0.13127898 213.87913405 -0.13127898 215.23257875 -0.14939123 C221.14801213 -0.05869116 221.14801213 -0.05869116 224.34882355 2.86251926 C225.77624512 5.5146637 225.77624512 5.5146637 225.83874512 8.5771637 C224.46475816 12.37583351 223.2196638 13.39994861 219.77624512 15.5146637 C216.70006937 16.09448877 213.6759648 16.05893847 210.55285645 16.02932739 C209.1551651 16.03974569 209.1551651 16.03974569 207.72923756 16.05037445 C204.60534072 16.06867835 201.48220039 16.05837055 198.35827637 16.04811096 C196.1193688 16.05516766 193.88046601 16.06391161 191.64157104 16.07421875 C185.5590028 16.09674908 179.47669431 16.09376459 173.39410019 16.08489728 C168.31926227 16.07979313 163.24447341 16.08707522 158.16964054 16.09436935 C145.51566857 16.1123525 132.86185215 16.10594579 120.20789635 16.08819955 C109.21839423 16.0735004 98.22916545 16.08813414 87.23969853 16.11696971 C75.95405721 16.14636181 64.66853893 16.1568284 53.38284969 16.14778751 C47.04739992 16.14285154 40.71216271 16.14511053 34.3767395 16.16557503 C28.4209293 16.18389191 22.46562835 16.17802185 16.50984573 16.15337563 C14.32209148 16.14835536 12.13429869 16.15188879 9.94657516 16.16452408 C6.96367115 16.18039123 3.98245716 16.16556306 0.99963379 16.14285278 C-0.30410832 16.16060638 -0.30410832 16.16060638 -1.63418865 16.17871863 C-5.98444151 16.11126144 -7.71086481 15.91060939 -11.26506042 13.16680813 C-13.22375488 10.5146637 -13.22375488 10.5146637 -13.78625488 7.4521637 C-12.29542432 -0.3332848 -6.63230769 -0.06179726 0 0 Z " fill="#070707" transform="translate(97.2237548828125,375.48533630371094)"/>
<path d="M0 0 C3.48162851 0.56921863 6.94339411 0.53736867 10.4609375 0.52734375 C11.16766602 0.52855225 11.87439453 0.52976074 12.60253906 0.53100586 C16.09918165 0.51176204 19.40826351 0.33787855 22.8359375 -0.34765625 C29.03107244 -0.77490694 34.0182221 1.90340475 39.2109375 5.08984375 C50.93816997 17.14283268 49.4609375 26.31387678 49.4609375 44.40234375 C24.0509375 44.40234375 -1.3590625 44.40234375 -27.5390625 44.40234375 C-27.5390625 17.38273591 -27.5390625 17.38273591 -19.3515625 7.58984375 C-13.89561278 2.59646368 -7.60887638 -1.63047351 0 0 Z " fill="#FDD34E" transform="translate(126.5390625,224.59765625)"/>
<path d="M0 0 C4.75481646 0.57634139 7.97048212 2.55068521 12 5 C11.34593456 8.23120296 10.18015522 10.71994243 8.55078125 13.578125 C8.0398291 14.47893799 7.52887695 15.37975098 7.00244141 16.30786133 C6.16592041 17.76421997 6.16592041 17.76421997 5.3125 19.25 C4.73161621 20.26924561 4.15073242 21.28849121 3.55224609 22.33862305 C-1.70525394 31.54100953 -7.04891441 40.69305158 -12.40234375 49.83984375 C-18.01678675 59.43942238 -23.5580032 69.08135951 -29.10888672 78.71777344 C-32.23680148 84.14659942 -35.36858448 89.57319281 -38.5 95 C-39.75001879 97.16665583 -41.00001878 99.3333225 -42.25 101.5 C-49.75 114.5 -49.75 114.5 -51.62744141 117.75415039 C-52.86939744 119.90692816 -54.1112604 122.05975963 -55.35302734 124.21264648 C-58.25646913 129.24616915 -61.160785 134.27918048 -64.06854248 139.31021118 C-65.09345403 141.08362608 -66.11806123 142.85721646 -67.14257812 144.63085938 C-68.42452738 146.84995773 -69.70704107 149.06873016 -70.99023438 151.28710938 C-74.382778 157.16127054 -77.73072173 163.0562835 -81 169 C-84.67245883 168.33784052 -87.18761274 167.50310345 -90.3125 165.4375 C-91.00988281 164.98246094 -91.70726562 164.52742187 -92.42578125 164.05859375 C-93.20501953 163.53458984 -93.20501953 163.53458984 -94 163 C-90.45180902 155.51418245 -86.52748156 148.35950727 -82.29614258 141.24609375 C-78.41228211 134.71674606 -74.60365211 128.14607823 -70.8125 121.5625 C-70.17513916 120.45632324 -69.53777832 119.35014648 -68.88110352 118.21044922 C-67.57237584 115.93876335 -66.26386516 113.66695245 -64.95556641 111.39501953 C-61.80667946 105.9283002 -58.65316736 100.46425113 -55.5 95 C-54.2499765 92.83334689 -52.99997653 90.66668021 -51.75 88.5 C-48 82 -48 82 -44.25 75.5 C-43.63116943 74.42733887 -43.01233887 73.35467773 -42.37475586 72.24951172 C-41.12564482 70.08442929 -39.87645871 67.91939018 -38.62719727 65.75439453 C-35.48797691 60.31384294 -32.35009437 54.87252784 -29.21484375 49.4296875 C-22.93252649 38.52575581 -16.63831319 27.62876578 -10.3125 16.75 C-9.7362085 15.75597168 -9.15991699 14.76194336 -8.56616211 13.73779297 C-5.8403091 9.05852691 -3.07468873 4.45867271 0 0 Z " fill="#ECC783" transform="translate(436,215)"/>
<path d="M0 0 C4.61513112 1.31860889 8.09897612 3.21355437 12 6 C10.63527177 9.63260345 9.0019884 12.90961407 7.05078125 16.26171875 C6.16132813 17.79602539 6.16132813 17.79602539 5.25390625 19.36132812 C4.61324219 20.45896484 3.97257812 21.55660156 3.3125 22.6875 C2.6376662 23.84940348 1.96319344 25.01151671 1.2890625 26.17382812 C-0.11107089 28.5872404 -1.51275019 30.9997446 -2.91552734 33.41162109 C-6.12491268 38.93267071 -9.31125063 44.46701601 -12.5 50 C-13.7498918 52.16672909 -14.99989215 54.33339556 -16.25 56.5 C-16.86875 57.5725 -17.4875 58.645 -18.125 59.75 C-35.9375 90.625 -35.9375 90.625 -53.75 121.5 C-54.3697168 122.57435303 -54.98943359 123.64870605 -55.62792969 124.75561523 C-56.86754312 126.90392287 -58.1077691 129.05187718 -59.34863281 131.19946289 C-62.28397683 136.28144145 -65.21285272 141.36684663 -68.12011719 146.4649353 C-69.49586791 148.87653083 -70.87511347 151.28611876 -72.25463867 153.69555664 C-73.22851818 155.3999055 -74.19732565 157.10714938 -75.16601562 158.81445312 C-75.75576172 159.84376953 -76.34550781 160.87308594 -76.953125 161.93359375 C-77.47036133 162.84165771 -77.98759766 163.74972168 -78.52050781 164.68530273 C-79.85523239 166.77350796 -81.16933668 168.34578204 -83 170 C-84.64951226 169.04801289 -86.29451508 168.08820855 -87.9375 167.125 C-88.85402344 166.59132813 -89.77054687 166.05765625 -90.71484375 165.5078125 C-93 164 -93 164 -94 162 C-92.86694336 159.58349609 -92.86694336 159.58349609 -91.08984375 156.5234375 C-90.11047852 154.82380859 -90.11047852 154.82380859 -89.11132812 153.08984375 C-88.38688004 151.85146813 -87.66226636 150.61318937 -86.9375 149.375 C-86.19787978 148.09805446 -85.45895488 146.82070594 -84.72070312 145.54296875 C-82.49078712 141.689264 -80.24625002 137.84419892 -78 134 C-76.79291219 131.92972047 -75.58587654 129.85941054 -74.37890625 127.7890625 C-72.68533009 124.88613634 -70.990586 121.98391825 -69.29272461 119.08349609 C-64.80989989 111.41835288 -60.3961267 103.71501761 -56 96 C-50.46014067 86.27875494 -44.86625068 76.59105132 -39.21655273 66.93310547 C-34.97382673 59.67788181 -30.76015915 52.40638696 -26.5625 45.125 C-25.94777832 44.05910645 -25.33305664 42.99321289 -24.69970703 41.89501953 C-21.76265877 36.80020245 -18.8288586 31.70354497 -15.90113831 26.60336304 C-14.53493486 24.22402828 -13.16719744 21.84557718 -11.79928589 19.46722412 C-10.83870135 17.7955961 -9.88037822 16.12266921 -8.92211914 14.44970703 C-6.08890547 9.52417226 -3.24312208 4.66752061 0 0 Z " fill="#E7BA68" transform="translate(461,229)"/>
<path d="M0 0 C1.6152079 -0.01292336 1.6152079 -0.01292336 3.26304626 -0.02610779 C6.8259986 -0.0488293 10.38816841 -0.04201747 13.95117188 -0.03295898 C16.42452225 -0.03819158 18.89787062 -0.04446672 21.37121582 -0.05174255 C26.55632921 -0.06215808 31.74116835 -0.05756813 36.92626953 -0.04296875 C43.57820807 -0.02577449 50.22894469 -0.04927828 56.88083649 -0.08445835 C61.98860421 -0.1063945 67.09616415 -0.10500003 72.20396423 -0.09669304 C74.65682421 -0.09587155 77.10969914 -0.10277253 79.56251526 -0.11746407 C82.98883505 -0.13484021 86.41358769 -0.12042351 89.83984375 -0.09765625 C90.85711044 -0.10934845 91.87437714 -0.12104065 92.92247009 -0.13308716 C99.77062044 -0.04027658 99.77062044 -0.04027658 103.07727051 2.88148499 C104.41992188 5.53344727 104.41992188 5.53344727 104.48242188 8.59594727 C103.0938499 12.43494038 101.93245053 13.42649667 98.41992188 15.53344727 C94.95371556 16.12777978 91.52757605 16.09017167 88.01757812 16.06689453 C86.44845169 16.07981789 86.44845169 16.07981789 84.84762573 16.09300232 C81.39230558 16.11569159 77.93779444 16.10891798 74.48242188 16.09985352 C72.08015705 16.10508751 69.67789428 16.11136317 67.27563477 16.11863708 C62.24192634 16.12904662 57.20850051 16.1244712 52.17480469 16.10986328 C45.72149748 16.09266938 39.26908011 16.11617648 32.81587219 16.15135288 C27.85561208 16.17330295 22.8955657 16.17189119 17.93527222 16.16358757 C15.55580672 16.16276686 13.17632572 16.16965305 10.79690552 16.1843586 C7.47146731 16.20176063 4.14763877 16.18729661 0.82226562 16.16455078 C-0.65380661 16.18208908 -0.65380661 16.18208908 -2.15969849 16.19998169 C-6.78777338 16.13551117 -8.90503478 16.04228585 -12.69506836 13.18540955 C-14.58007812 10.53344727 -14.58007812 10.53344727 -15.14257812 7.47094727 C-13.55175559 -0.83668152 -6.98037783 -0.0447799 0 0 Z " fill="#060606" transform="translate(238.580078125,275.466552734375)"/>
<path d="M0 0 C1.59816811 -0.01292336 1.59816811 -0.01292336 3.22862244 -0.02610779 C6.75430522 -0.04883021 10.27919718 -0.04201677 13.80493164 -0.03295898 C16.25346616 -0.03819193 18.70199865 -0.0444672 21.15052795 -0.05174255 C26.28436767 -0.06215854 31.41793042 -0.05756807 36.55175781 -0.04296875 C43.13400291 -0.02578379 49.7153749 -0.0492676 56.29752254 -0.08445835 C61.354719 -0.10640903 66.41170582 -0.10499634 71.46893501 -0.09669304 C73.89584879 -0.09587217 76.32277776 -0.10276134 78.74964714 -0.11746407 C82.14223913 -0.13486486 85.53325304 -0.12040234 88.92578125 -0.09765625 C89.93010193 -0.10934845 90.93442261 -0.12104065 91.96917725 -0.13308716 C96.65055228 -0.06916015 98.83427803 0.01743437 102.68238831 2.88148499 C104.52758789 5.53344727 104.52758789 5.53344727 104.65258789 8.59594727 C103.19607924 12.39905318 102.03176898 13.42883791 98.52758789 15.53344727 C95.06140216 16.12784318 91.63522844 16.09017158 88.12524414 16.06689453 C86.55611771 16.07981789 86.55611771 16.07981789 84.95529175 16.09300232 C81.4999716 16.11569159 78.04546045 16.10891798 74.59008789 16.09985352 C72.18782306 16.10508751 69.7855603 16.11136317 67.38330078 16.11863708 C62.34959235 16.12904662 57.31616652 16.1244712 52.2824707 16.10986328 C45.8291635 16.09266938 39.37674612 16.11617648 32.92353821 16.15135288 C27.9632781 16.17330295 23.00323172 16.17189119 18.04293823 16.16358757 C15.66347273 16.16276686 13.28399173 16.16965305 10.90457153 16.1843586 C7.57913333 16.20176063 4.25530479 16.18729661 0.92993164 16.16455078 C-0.54614059 16.18208908 -0.54614059 16.18208908 -2.05203247 16.19998169 C-6.68010736 16.13551117 -8.79736877 16.04228585 -12.58740234 13.18540955 C-14.47241211 10.53344727 -14.47241211 10.53344727 -15.03491211 7.47094727 C-13.45169535 -0.7969625 -6.95397807 -0.0450947 0 0 Z " fill="#050505" transform="translate(238.472412109375,225.466552734375)"/>
<path d="M0 0 C1.59816811 -0.01292336 1.59816811 -0.01292336 3.22862244 -0.02610779 C6.75430522 -0.04883021 10.27919718 -0.04201677 13.80493164 -0.03295898 C16.25346616 -0.03819193 18.70199865 -0.0444672 21.15052795 -0.05174255 C26.28436767 -0.06215854 31.41793042 -0.05756807 36.55175781 -0.04296875 C43.13400291 -0.02578379 49.7153749 -0.0492676 56.29752254 -0.08445835 C61.354719 -0.10640903 66.41170582 -0.10499634 71.46893501 -0.09669304 C73.89584879 -0.09587217 76.32277776 -0.10276134 78.74964714 -0.11746407 C82.14223913 -0.13486486 85.53325304 -0.12040234 88.92578125 -0.09765625 C89.93010193 -0.10934845 90.93442261 -0.12104065 91.96917725 -0.13308716 C96.65055228 -0.06916015 98.83427803 0.01743437 102.68238831 2.88148499 C104.52758789 5.53344727 104.52758789 5.53344727 104.65258789 8.59594727 C103.19607924 12.39905318 102.03176898 13.42883791 98.52758789 15.53344727 C95.06140216 16.12784318 91.63522844 16.09017158 88.12524414 16.06689453 C86.55611771 16.07981789 86.55611771 16.07981789 84.95529175 16.09300232 C81.4999716 16.11569159 78.04546045 16.10891798 74.59008789 16.09985352 C72.18782306 16.10508751 69.7855603 16.11136317 67.38330078 16.11863708 C62.34959235 16.12904662 57.31616652 16.1244712 52.2824707 16.10986328 C45.8291635 16.09266938 39.37674612 16.11617648 32.92353821 16.15135288 C27.9632781 16.17330295 23.00323172 16.17189119 18.04293823 16.16358757 C15.66347273 16.16276686 13.28399173 16.16965305 10.90457153 16.1843586 C7.57913333 16.20176063 4.25530479 16.18729661 0.92993164 16.16455078 C-0.54614059 16.18208908 -0.54614059 16.18208908 -2.05203247 16.19998169 C-6.68010736 16.13551117 -8.79736877 16.04228585 -12.58740234 13.18540955 C-14.47241211 10.53344727 -14.47241211 10.53344727 -15.03491211 7.47094727 C-13.45169535 -0.7969625 -6.95397807 -0.0450947 0 0 Z " fill="#040404" transform="translate(238.472412109375,175.466552734375)"/>
<path d="M0 0 C3.95478251 2.91900614 7.41112181 6.50974362 9.625 10.9375 C10.15236173 17.14414192 10.38747482 22.71858332 6.625 27.9375 C1.62141181 32.952917 -1.96582262 35.07740645 -9.1875 35.25 C-14.46334312 35.19279206 -17.39062412 34.63033618 -21.375 30.9375 C-26.72238681 25.21024418 -27.73586749 21.68567647 -27.65234375 13.91796875 C-27.1412429 8.42543426 -24.22122355 5.57062043 -20.25 2.125 C-14.31208906 -2.39297572 -7.02729707 -2.21229723 0 0 Z " fill="#FBDCC3" transform="translate(146.375,176.0625)"/>
<path d="M0 0 C5.99923529 3.13527874 9.93360448 6.6953355 12.83203125 12.90625 C14.87323577 22.37001643 12.69849468 28.95537889 7.51953125 37.09375 C3.92685075 35.73742035 0.65017938 34.13325852 -2.68359375 32.23046875 C-4.15505859 31.39418945 -4.15505859 31.39418945 -5.65625 30.54101562 C-6.67074219 29.96029297 -7.68523437 29.37957031 -8.73046875 28.78125 C-10.73550729 27.63902482 -12.74071342 26.49709376 -14.74609375 25.35546875 C-15.70837891 24.80681152 -16.67066406 24.2581543 -17.66210938 23.69287109 C-21.58664073 21.4661143 -25.53004353 19.27417145 -29.48046875 17.09375 C-26.73029256 9.30158412 -22.38167729 4.44420384 -15.48046875 0.09375 C-10.35148879 -1.61590999 -5.13039293 -1.87441128 0 0 Z " fill="#E5AD4B" transform="translate(473.48046875,184.90625)"/>
<path d="M0 0 C13.5 6.75 13.5 6.75 19.25 10.375 C20.34828125 11.06335938 21.4465625 11.75171875 22.578125 12.4609375 C23.37734375 12.96882813 24.1765625 13.47671875 25 14 C22.76503893 16.45120456 20.55118937 17.94114592 17.62109375 19.48046875 C16.78255859 19.92197266 15.94402344 20.36347656 15.08007812 20.81835938 C13.77200195 21.49608398 13.77200195 21.49608398 12.4375 22.1875 C11.56158203 22.65091797 10.68566406 23.11433594 9.78320312 23.59179688 C3.26294413 27 3.26294413 27 1 27 C0.67 18.09 0.34 9.18 0 0 Z " fill="#E3AB4A" transform="translate(340,394)"/>
</svg>
